<?xml version="1.0" standalone="no"?>
<!DOCTYPE svg PUBLIC "-//W3C//DTD SVG 1.1//EN" "http://www.w3.org/Graphics/SVG/1.1/DTD/svg11.dtd" >
<!--
2013-9-30: Created.
-->
<svg>
<metadata>
Created by iconfont
</metadata>
<defs>

<font id="iconfont" horiz-adv-x="1024" >
  <font-face
    font-family="iconfont"
    font-weight="500"
    font-stretch="normal"
    units-per-em="1024"
    ascent="896"
    descent="-128"
  />
    <missing-glyph />
    
    <glyph glyph-name="duihao" unicode="&#59069;" d="M874.052023 650.350914l60.339778-60.339779-543.058008-543.058008L330.994015 107.292906zM149.979135 409.014996l301.698894-301.698894-60.339779-60.339778L89.639357 348.675217z"  horiz-adv-x="1024" />

    
    <glyph glyph-name="arrow-down" unicode="&#60281;" d="M852.35712 573.4195199999999a47.18592 47.18592 0 0 0-4.11648-57.34399999l-276.70528-310.12864001a79.60576 79.60576 0 0 0-119.05024 0l-276.72576 310.10816a47.18592 47.18592 0 0 0-3.072 58.83904c11.30496 15.29856 32.768 18.45248 47.9232 7.04512l255.488-192.14336a59.65824 59.65824 0 0 1 71.80288 0l255.488 192.14336a34.05824 34.05824 0 0 0 48.9472-8.54016001z"  horiz-adv-x="1024" />

    
    <glyph glyph-name="arrow-up" unicode="&#59438;" d="M171.64288 194.58047999999997a47.18592 47.18592 0 0 0 4.11648 57.344l276.70528 310.12864a79.60576 79.60576 0 0 0 119.05024 0l276.72576-310.10816a47.18592 47.18592 0 0 0 3.072-58.83904c-11.30496-15.29856-32.768-18.45248-47.9232-7.04512l-255.488 192.14336a59.65824 59.65824 0 0 1-71.80288 0l-255.488-192.14336a34.05824 34.05824 0 0 0-48.9472 8.54016z"  horiz-adv-x="1024" />

    
    <glyph glyph-name="arrowdropdown-copy-copy" unicode="&#58899;" d="M778.02809125 384l-429.01231016-429.01231019L248.94865974 55.05481114999998 577.89384855 384 248.94865974 712.94518885 349.01578109 813.01231019z"  horiz-adv-x="1024" />

    
    <glyph glyph-name="right" unicode="&#58902;" d="M862.15130276 384l-477.53331436-477.53331439L273.23334283 17.851331149999965 639.38201159 384 273.23334283 750.14866885 384.6179884 861.53331439z"  horiz-adv-x="1024" />

    
    <glyph glyph-name="bianji" unicode="&#58937;" d="M946.176 0a34.304 34.304 0 0 0 0-68.608H77.824a34.304 34.304 0 0 0 0 68.608h868.352z m0 622.08L401.92 77.824 189.44 56.32l21.504 211.968 473.088 473.088 71.168 71.168c31.744 31.744 87.552 31.744 119.296 0l71.168-71.168c15.872-15.872 24.576-37.376 24.576-59.904 0.512-22.016-8.192-43.52-24.064-59.392zM266.24 133.12l103.936 10.752 431.616 431.616-93.696 93.696L276.48 237.568 266.24 133.12zM815.104 768.512c-4.096 0-8.192-1.536-11.264-4.608l-46.592-46.592 93.696-93.696 46.592 46.592c6.144 6.144 6.144 16.384 0 22.528l-71.168 71.168c-3.072 3.072-7.168 4.608-11.264 4.608z"  horiz-adv-x="1024" />

    
    <glyph glyph-name="shanchu" unicode="&#58898;" d="M519.620465 896c-103.924093 0-188.511256-82.467721-192.083349-185.820279H85.015814A48.91386 48.91386 0 0 1 36.101953 661.313488a48.91386 48.91386 0 0 1 48.913861-48.866232h54.010046V64.654884c0-102.852465 69.822512-186.844279 155.909954-186.844279h439.200744c86.087442 0 155.909953 83.491721 155.909954 186.844279V611.899535h48.91386a48.91386 48.91386 0 0 1 48.913861 48.890046 48.91386 48.91386 0 0 1-48.913861 48.866233h-227.756651A191.559442 191.559442 0 0 1 519.620465 896z m-107.234232-177.080558c3.548279 49.771163 46.627721 88.540279 99.851907 88.540279 53.224186 0 96.327442-38.745302 99.351813-88.540279h-199.20372z m-111.997024-752.044651c-30.981953 0-65.083535 39.15014-65.083535 95.041488V608.256h575.488v-546.839814c0-55.915163-34.077767-95.041488-65.059721-95.041488H300.389209v0.500093zM368.116093 99.185116c24.361674 0 44.27014 21.670698 44.27014 48.818605v278.623256c0 27.147907-19.908465 48.818605-44.27014 48.818604-24.33786 0-44.27014-21.670698-44.27014-48.818604v-278.623256c0-27.147907 19.360744-48.818605 44.293954-48.818605z m154.933581 0c24.361674 0 44.293953 21.670698 44.293954 48.818605v278.623256c0 27.147907-19.932279 48.818605-44.293954 48.818604-24.33786 0-44.27014-21.670698-44.270139-48.818604v-278.623256c0-27.147907 19.932279-48.818605 44.293953-48.818605z m132.810419 0c24.33786 0 44.27014 21.670698 44.27014 48.818605v278.623256c0 27.147907-19.932279 48.818605-44.27014 48.818604s-44.27014-21.670698-44.27014-48.818604v-278.623256c0-27.147907 19.360744-48.818605 44.27014-48.818605z"  horiz-adv-x="1024" />

    
    <glyph glyph-name="tianjia" unicode="&#58896;" d="M512-128C229.7-128 0 101.7 0 384S229.7 896 512 896s512-229.7 512-512-229.7-512-512-512z m0 938.7C276.7 810.7 85.3 619.3 85.3 384S276.7-42.7 512-42.7 938.7 148.7 938.7 384 747.3 810.7 512 810.7zM682.7 341.3H341.3c-23.6 0-42.7 19.1-42.7 42.7s19.1 42.7 42.7 42.7h341.3c23.6 0 42.7-19.1 42.7-42.7s-19.1-42.7-42.6-42.7zM512 170.7c-23.6 0-42.7 19.1-42.7 42.7V554.7c0 23.6 19.1 42.7 42.7 42.7s42.7-19.1 42.7-42.7v-341.3c0-23.6-19.1-42.7-42.7-42.7z"  horiz-adv-x="1024" />

    
    <glyph glyph-name="chengyuan" unicode="&#58968;" d="M512-85.16099999999994c-137.806 0-264.774 37.161-357.677 105.29l-10.84 7.742-1.548 13.935c0 15.484-1.548 29.42-1.548 44.904 0 131.613 71.226 253.935 184.258 320.516l18.58 10.839 17.033-13.936c41.807-34.064 94.452-52.645 150.194-52.645 54.193 0 108.387 18.58 150.193 54.193l17.032 13.936 18.581-10.839c114.58-66.58 185.807-188.903 185.807-320.516 0-15.484-1.549-30.968-3.097-46.452l-1.549-13.935-10.838-7.742C772.129-48 646.71-85.16099999999994 512-85.16099999999994zM203.871 63.48400000000004c80.516-55.742 190.452-85.161 309.677-85.161 116.13 0 224.517 29.419 305.033 83.612 0 9.29 1.548 17.033 1.548 26.323C820.129 192 767.484 288 682.323 345.28999999999996c-49.549-35.613-109.936-54.193-171.871-54.193-60.387 0-120.775 18.58-170.323 54.193C254.968 288 203.871 192 203.871 89.80600000000004c-1.548-10.838-1.548-18.58 0-26.322zM573.935 275.61300000000006l-29.419-61.936 29.42-144-60.388-72.774-63.483 74.323 34.064 144-34.064 60.387h123.87zM304.516 608.5160000000001a170.323 170.323 0 1 1 340.645 0 170.323 170.323 0 1 1-340.645 0zM510.452 387.097c-126.968 0-230.71 103.742-230.71 230.71s103.742 230.71 230.71 230.71 230.71-103.743 230.71-230.71-103.743-230.71-230.71-230.71z m0 399.484c-92.904 0-168.775-75.871-168.775-168.775s75.871-168.774 168.775-168.774 168.774 75.871 168.774 168.774-75.871 168.775-168.774 168.775z"  horiz-adv-x="1024" />

    
    <glyph glyph-name="tuandui" unicode="&#59018;" d="M458.7 678c22.1-67.2 83.8-67.1 105.8 0 7.3 3.8 14.7 15.2 16 24.6 1.3 9.8 0.5 22.9-9.4 22.9-2.2 31.5-19.4 58.2-58.7 58.2-38.4 0-58-23.1-60.4-58.2-9.9 0-10.7-13.1-9.4-22.9 1.3-9.4 8.8-20.7 16.1-24.6z m0 0M647.4 362.5V553.8c0 33.6-24.4 62.6-58.7 69.8l-25 5.2-52.1-103.9-52.1 103.9-25-5.2c-34.3-7.2-58.7-36.2-58.7-69.8v-191.3c0-25.7 20.8-46.6 46.5-46.6v-284.3c0-25.7 20.8-46.6 46.5-46.6h85.5c25.7 0 46.5 20.8 46.5 46.6V316c25.8 0 46.6 20.8 46.6 46.5z m0 0M284.8 564.6c13.2-40.1 43.2-50.9 65.9-33.6v22.8c0 24.1 9.7 46.6 25.5 63.8-5.3 20-19.7 35.1-46.6 35.1-32 0-48.3-19.2-50.3-48.5-8.3 0-8.9-10.9-7.8-19.1 1-7.8 7.2-17.3 13.3-20.5z m0 0M397.3 295.4c-27.2 10.2-46.5 36.4-46.5 67.1V480.4L329 436.9l-43.5 86.6-20.9-4.3c-28.6-6-48.9-30.2-48.9-58.2v-159.5c0-21.4 17.4-38.8 38.8-38.8v-237.1c0-21.4 17.4-38.8 38.8-38.8h71.3c16.4 0 30.3 10.1 36 24.5-1.9 6.5-3.3 13.2-3.3 20.3V295.4z m0 0M672.9 531c22.8-17.3 52.7-6.5 65.9 33.6 6.1 3.2 12.3 12.7 13.3 20.5 1.1 8.2 0.5 19.1-7.8 19.1-2 29.2-18.3 48.5-50.3 48.5-26.9 0-41.3-15.1-46.6-35.1 15.8-17.2 25.5-39.6 25.5-63.8V531z m0 0M759 519.2l-20.9 4.3-43.5-86.6-21.8 43.5v-117.9c0-30.7-19.4-56.9-46.5-67.1v-263.8c0-7.1-1.4-13.8-3.3-20.3 5.7-14.3 19.6-24.5 36-24.5h71.3c21.4 0 38.8 17.4 38.8 38.8V262.8c21.4 0 38.8 17.4 38.8 38.8V461c0.1 28-20.3 52.2-48.9 58.2z m0 0"  horiz-adv-x="1024" />

    
    <glyph glyph-name="xiangmu" unicode="&#58961;" d="M410.67 352H133.33A69.33 69.33 0 0 1 64 282.67v-277.34A69.33 69.33 0 0 1 133.33-64h277.34A69.33 69.33 0 0 1 480 5.33V282.67A69.33 69.33 0 0 1 410.67 352zM402 54a40 40 0 0 0-40-40H182a40 40 0 0 0-40 40V234a40 40 0 0 0 40 40h180a40 40 0 0 0 40-40zM890.67 352H613.33A69.33 69.33 0 0 1 544 282.67v-277.34A69.33 69.33 0 0 1 613.33-64h277.34A69.33 69.33 0 0 1 960 5.33V282.67A69.33 69.33 0 0 1 890.67 352zM882 54a40 40 0 0 0-40-40H662a40 40 0 0 0-40 40V234a40 40 0 0 0 40 40h180a40 40 0 0 0 40-40zM410.67 832H133.33A69.33 69.33 0 0 1 64 762.67v-277.34A69.33 69.33 0 0 1 133.33 416h277.34A69.33 69.33 0 0 1 480 485.33V762.67A69.33 69.33 0 0 1 410.67 832zM402 534a40 40 0 0 0-40-40H182a40 40 0 0 0-40 40V714a40 40 0 0 0 40 40h180a40 40 0 0 0 40-40zM694.49 439.82a81.35 81.35 0 0 1 115 0l126.69 126.67a81.35 81.35 0 0 1 0 115L809.51 808.18a81.35 81.35 0 0 1-115 0L567.82 681.51a81.35 81.35 0 0 1 0-115z"  horiz-adv-x="1024" />

    
    <glyph glyph-name="renlianduibi" unicode="&#59091;" d="M275.2 723.2c-57.6 0-102.4-51.2-102.4-102.4v-147.2h44.8V620.8c0 38.4 32 64 64 64h147.2l-6.4 38.4H275.2zM211.2 153.6V300.8h-38.4v-147.2c0-57.6 51.2-102.4 102.4-102.4h147.2v38.4H275.2c-32 0-64 32-64 64zM806.4 153.6c0-38.4-32-64-64-64H595.2v-44.8h147.2c57.6 0 102.4 51.2 102.4 102.4V294.4l-38.4 6.4v-147.2zM819.2 697.6c-19.2 19.2-44.8 32-76.8 32H601.6v-44.8h147.2c32 0 64-25.6 64-64v-147.2h44.8V620.8c-6.4 25.6-19.2 51.2-38.4 76.8zM512 633.6C377.6 633.6 262.4 518.4 262.4 384s108.8-249.6 249.6-249.6 249.6 108.8 249.6 249.6S646.4 633.6 512 633.6z m0-460.8c-121.6 0-211.2 89.6-211.2 211.2S396.8 595.2 512 595.2c115.2 0 211.2-96 211.2-211.2 0-115.2-96-211.2-211.2-211.2zM646.4 358.4c0-76.8-57.6-134.4-134.4-134.4s-134.4 57.6-134.4 134.4h268.8zM588.8 454.4m-25.6 0a25.6 25.6 0 1 1 51.2 0 25.6 25.6 0 1 1-51.2 0ZM588.8 428.8c-12.8 0-25.6 12.8-25.6 25.6s12.8 25.6 25.6 25.6 25.6-12.8 25.6-25.6-12.8-25.6-25.6-25.6z m0 57.6c-12.8 0-25.6-12.8-25.6-25.6s12.8-25.6 25.6-25.6 25.6 12.8 25.6 25.6-12.8 25.6-25.6 25.6zM428.8 454.4m-25.6 0a25.6 25.6 0 1 1 51.2 0 25.6 25.6 0 1 1-51.2 0ZM428.8 428.8c-12.8 0-25.6 12.8-25.6 25.6s12.8 25.6 25.6 25.6c19.2 0 25.6-12.8 25.6-25.6 6.4-12.8-6.4-25.6-25.6-25.6z m0 57.6c-12.8 0-25.6-12.8-25.6-25.6s12.8-25.6 25.6-25.6c19.2 0 25.6 12.8 25.6 25.6 6.4 12.8-6.4 25.6-25.6 25.6z"  horiz-adv-x="1024" />

    
    <glyph glyph-name="shen" unicode="&#58895;" d="M1237.635-128.001h-1153.925c-46.15 0-83.709 36.9-83.709 82.222l-0 859.59c0 45.289 37.56 82.189 83.709 82.189h1153.925c46.153 0 83.744-36.9 83.744-82.189v-859.59c0-45.322-37.591-82.222-83.744-82.222v0zM1255.273 800.299c0 16.285-13.608 29.533-30.357 29.533h-1128.455c-16.749 0-30.359-13.248-30.359-29.533v-832.599c0-16.287 13.644-29.533 30.359-29.533h1128.455c16.749 0 30.357 13.246 30.357 29.533v832.599zM726.592 401.045h430.008v-66.168h-430.008v66.168zM726.592 631.889h430.008v-66.2h-430.008v66.2zM1156.568 103.174h-990.901v66.201h990.901l-0-66.201zM601.296 499.961c-16.259-11.866-33.578-24.637-51.924-38.344v-130.932c0-21.188-8.477-34.282-25.432-39.28-16.955-4.969-39.573-8.71-67.819-11.224-1.424 16.222-8.477 31.799-21.193 46.762 32.486-1.228 52.984-1.228 61.461 0 8.477 1.256 12.716 7.481 12.716 18.704v87.911h-6.358c-49.474-34.926-87.952-58.307-115.505-70.142-27.551-11.865-57.222-23.702-89.012-35.538-31.791-11.837-69.608-24.609-113.385-38.345-5.663 14.964-16.955 26.83-33.91 35.538 38.149 6.256 76.627 15.578 115.505 28.056 38.844 12.451 71.329 25.251 97.49 38.345 26.128 13.094 50.5 26.479 73.117 40.214l-205.576 0c-19.803 0-42.387-0.643-67.819-1.87v37.409c29.67-1.256 57.918-1.87 84.775-1.87l-0 140.285c0 22.446-0.729 46.761-2.119 72.948h84.775c5.629 22.446 9.172 39.279 10.597 50.502l57.222-9.352c-11.326-13.736-19.803-27.444-25.432-41.15h178.024c-1.424-26.186-2.119-50.502-2.119-72.948v-101.005c28.247 21.19 45.897 38.636 52.984 52.373l44.507-33.668c-14.141-3.74-29.342-11.544-45.567-23.38zM509.105 605.642v44.891h-218.294v-44.891h218.294zM509.105 532.693v43.020h-218.294v-43.020l218.294-0zM487.911 465.358l21.193 13.094v24.316l-218.294-0v-37.409h197.1z"  horiz-adv-x="1322" />

    
    <glyph glyph-name="qiahao" unicode="&#58910;" d="M1204.375793-127.998976H126.82221a127.846208 127.846208 0 0 0-89.702266 36.351945 124.159814 124.159814 0 0 0-27.135959 39.475141A121.395018 121.395018 0 0 0 0-3.839162V771.839674c0 16.742375 3.379195 33.02395 9.983985 48.332728C16.383975 834.96918 25.497562 848.22996 37.119944 859.647543A127.846208 127.846208 0 0 0 126.82221 895.999488h1077.553583a127.846208 127.846208 0 0 0 89.651066-36.351945c11.673582-11.417583 20.787169-24.678363 27.187159-39.475141 6.60479-15.308777 9.983985-31.590353 9.983985-48.332728v-775.678836c0-16.742375-3.379195-33.02395-9.983985-48.332728a126.61741 126.61741 0 0 0-67.481499-66.047901c-15.615977-6.50239-32.255952-9.779185-49.356726-9.779185zM126.82221 833.842781c-34.918348 0-63.334305-27.801558-63.334305-62.003107v-775.678836c0-34.201549 28.415957-62.003107 63.334305-62.003107h1077.553583c34.918348 0 63.334305 27.801558 63.334305 62.003107V771.839674c0 34.201549-28.415957 62.003107-63.334305 62.003107H126.82221zM31.743952 617.676705h1267.710099v-63.999904H31.743952v63.999904z m1173.65584-622.539866h-413.08098v250.265225h413.08098v-250.265225z m-349.593076 62.156707h286.105171v125.951811h-286.105171v-125.951811z"  horiz-adv-x="1331" />

    
    <glyph glyph-name="shouquan" unicode="&#58922;" d="M524.8 288c-160 0-288 128-288 288S364.8 864 524.8 864s288-128 288-288-128-288-288-288z m0 512C403.2 800 300.8 697.6 300.8 576s102.4-224 224-224 224 102.4 224 224-102.4 224-224 224zM140.8-96c-19.2 0-32 12.8-32 32 0 230.4 185.6 416 416 416 102.4 0 198.4-38.4 275.2-102.4 12.8-12.8 12.8-32 0-44.8-12.8-12.8-32-12.8-44.8 0-64 57.6-147.2 89.6-236.8 89.6-192 0-352-160-352-352 6.4-25.6-6.4-38.4-25.6-38.4zM640-96l-140.8 140.8c-12.8 12.8-12.8 32 0 44.8 12.8 12.8 32 12.8 44.8 0l96-96 294.4 294.4c12.8 12.8 32 12.8 44.8 0s12.8-32 0-44.8L640-96z"  horiz-adv-x="1024" />

    
    <glyph glyph-name="shouquanxinxi" unicode="&#58911;" d="M681.470629 601.6h184.32a44.16 44.16 0 0 1 40.96 26.88 43.52 43.52 0 0 1-9.6 48L696.190629 877.44a43.52 43.52 0 0 1-48 9.6 44.8 44.8 0 0 1-27.52-40.96v-184.32a64 64 0 0 1 60.8-60.16z m0 196.48l136.32-132.48H684.670629zM851.710629 570.24H584.190629V832a64 64 0 0 1-64 64H166.270629a64 64 0 0 1-64-64v-896a64 64 0 0 1 64-64h684.8a64 64 0 0 1 64 64V512a58.24 58.24 0 0 1-63.36 58.24zM166.270629-58.24V832h353.92v-270.72a54.4 54.4 0 0 1 55.04-55.04h270.72v-561.92zM220.670629 630.4h192a32 32 0 0 1 32 32 32 32 0 0 1-32 32h-192a32.64 32.64 0 0 1-32-32 32 32 0 0 1 32-32zM220.670629 437.12h119.04a32 32 0 0 1 0 64H220.670629a32 32 0 1 1 0-64zM220.670629 243.84H678.270629a32 32 0 0 1 32 32 32 32 0 0 1-32 32H220.670629a32 32 0 0 1-32-32 32.64 32.64 0 0 1 32-32zM733.310629 115.2h-512a32.64 32.64 0 0 1-32-32 32 32 0 0 1 32-32h512a32 32 0 0 1 32 32 32 32 0 0 1-32 32z"  horiz-adv-x="1024" />

    
    <glyph glyph-name="xingmingzhengjian" unicode="&#58926;" d="M963.764706 896H60.235294a60.235294 60.235294 0 0 1-60.235294-60.235294v-903.529412a60.235294 60.235294 0 0 1 60.235294-60.235294h903.529412a60.235294 60.235294 0 0 1 60.235294 60.235294V835.764706a60.235294 60.235294 0 0 1-60.235294 60.235294z m0-963.764706H60.235294V835.764706h903.529412zM843.294118 68.668235a304.489412 304.489412 0 0 1-218.955294 283.105883 191.247059 191.247059 0 1 1-224.677648 0A304.489412 304.489412 0 0 1 180.705882 68.668235v-30.117647h662.588236zM380.988235 506.277647A131.011765 131.011765 0 1 0 512 375.265882a131.011765 131.011765 0 0 0-131.011765 131.011765zM243.049412 98.785882c16.865882 118.663529 131.011765 210.823529 268.950588 210.82353s252.385882-92.16 268.950588-210.82353z"  horiz-adv-x="1024" />

    
    <glyph glyph-name="quanbukeshi1" unicode="&#58894;" d="M512 884C235.8 884 12 660.1 12 384c0-276.2 223.9-500 500-500 276.2 0 500 223.9 500 500 0 276.2-223.9 500-500 500z m-44.73-294.632q-7.878-26.444-16.88-51.483t-19.693-48.669h386.542v-36.572h-405.11q-11.816-23.632-24.475-45.857t-25.6-43.605h394.981v-37.135q-77.083-92.838-173.86-158.106 28.133-7.877 56.828-16.88t59.079-19.692v-52.89Q515.657 155 311.977 205.077V241.65q152.479-31.509 226.186-57.39 42.2 31.508 78.49 66.955t66.675 74.833H314.79v37.135q2.814 5.064 6.47 12.94t9.285 18.568q3.938 7.878 10.971 22.225t17.724 35.729H206.76v36.572h168.233q5.627 11.816 12.66 30.946t16.598 45.575q2.813 7.877 4.783 13.785t3.094 9.846H243.333v37.135H422.82l15.754 63.017h63.017q-2.813-11.815-10.69-29.258-5.064-23.631-10.128-33.759h297.08v-37.135H467.27z"  horiz-adv-x="1024" />

    
    <glyph glyph-name="arrowright" unicode="&#58893;" d="M323.731 802.666c14.331 0 27.677-5.512 37.657-15.529l365.34-365.99c1.337-1.306 2.38-2.417 3.234-3.607l2.16-2.723c10.653-10.703 15.888-23.296 15.888-36.627 0-13.571-5.351-26.26-15.053-35.73l-367.853-363.953c-9.951-9.813-23.238-15.222-37.401-15.222-13.848 0-26.931 5.25-36.832 14.769-9.841 9.549-15.507 22.867-15.506 36.518 0 13.484 5.365 26.259 15.134 35.969l331.846 328.283-336.081 336.964c-9.607 9.666-14.915 22.296-14.915 35.619 0 13.958 5.673 27.055 15.937 36.876 9.768 9.271 22.734 14.381 36.444 14.381z"  horiz-adv-x="1024" />

    
    <glyph glyph-name="dianji01" unicode="&#58986;" d="M776.015557 310.419168l-5.632277 0c-13.495362 0-24.2718-6.401804-37.650505-13.377682l0 0.88823c0 34.352389-27.343765 66.007343-62.486146 66.007343l-5.632277 0c-13.495362 0-25.526373-7.746428-38.904055-14.735609l0 2.521426c0 34.345226-26.090215 65.725934-61.232596 65.725934l-5.632277 0c-13.495362 0-26.779923-7.473205-40.158628-14.462387L518.686794 558.724417c0 34.345226-24.834618 59.390645-59.978023 59.390645l-5.630231 0c-35.143405 0-68.169589-25.045419-68.169589-59.390645l0-401.105331-57.770751 58.266032c-12.032034 11.653411-26.886347 18.080797-43.830251 18.080797-16.957207 0-32.361035-6.427386-44.353161-18.080797l-3.736091-3.867074c-12.124132-11.784394-18.669198-27.460422-18.669198-44.183292 0-16.695241 6.754844-32.398898 18.316158-43.582611l154.877393-169.991626c10.125615-11.7056 24.953322-18.420535 40.603767-18.420535l355.726817 0c25.108864 0 46.208415 17.140379 51.720965 40.10644l1.960655 0.078795L839.755254 245.776915C839.756277 280.109862 811.157939 310.419168 776.015557 310.419168zM812.450375-12.163785c0-13.926174-11.835559-25.240871-26.375717-25.240871L430.346817-37.404656c-7.877411 0-15.297404 3.345188-20.563338 9.432837l-155.63464 170.82869c-6.898107 6.689353-10.69969 15.572674-10.69969 24.978904 0 9.432837 3.801583 18.290575 10.674107 24.978904l4.010337 3.867074c6.989181 6.79373 16.32992 10.529821 26.285666 10.529821s17.074887-3.736091 24.077372-10.529821l103.168708-102.319363L411.665339 558.724417c0 19.584034 21.019733 32.635281 41.414225 32.635281l5.630231 0c20.393469 0 33.222659-13.051247 33.222659-32.635281l0-199.490473 28.466332-0.391926c2.732228 17.179264 20.327978 31.850405 38.44766 31.850405l5.632277 0c20.392446 0 34.476209-19.387559 34.476209-38.97057l0-46.267766 27.839045-0.260943c2.730181 17.186428 19.700691 31.988552 37.820374 31.988552l5.632277 0c20.392446 0 35.729759-19.655665 35.729759-39.251979l0-44.654013 27.213805-0.914836c2.730181 17.165961 19.073404 31.301913 37.193087 31.301913l5.632277 0c20.392446 0 36.985356-17.113773 36.985356-36.710087L812.450375-12.163785zM277.887496 604.73738l-93.644797 0 0-26.755364 93.644797 0L277.887496 604.73738zM465.17709 832.16002l-26.755364 0 0-93.644797 26.755364 0L465.17709 832.16002zM356.5603 695.951825l-69.645197 67.6344-18.642592-19.192108 69.64622-67.633377L356.5603 695.951825zM639.087978 577.980993l93.644797 0 0 26.755364-93.644797 0L639.087978 577.980993zM643.111618 744.380814l-18.641569 19.205411-69.647243-67.621097 18.629289-19.204387L643.111618 744.380814z"  horiz-adv-x="1024" />

    
    <glyph glyph-name="home" unicode="&#58929;" d="M511.9 797.8L64.3 350.3l45.2-45.3 402.4 402.4 403.3-403.3 45.2 45.3zM768.1 31.9h-128v162h-256v-162h-128v288h-64v-352h256v162h128v-162h256v352h-64z"  horiz-adv-x="1024" />

    
    <glyph glyph-name="back" unicode="&#59550;" d="M512-118.137868c-276.93084 0-502.137868 225.333465-502.137868 502.202893 0 276.862203 225.21064 502.072843 502.137868 502.072843 276.80079 0 502.137868-225.21064 502.137868-502.072843C1014.137868 107.195597 788.80079-118.137868 512-118.137868M512 848.72679c-256.278163 0-464.730403-208.387215-464.730403-464.661765 0-256.21675 208.448628-464.730403 464.730403-464.730403 256.151725 0 464.661765 208.513653 464.661765 464.730403C976.665378 640.339575 768.151725 848.72679 512 848.72679M759.564806 414.579835 302.301446 414.579835l166.478572 178.526268c10.924208 10.935046 10.924208 28.650758 0 39.585804-10.945883 10.935046-28.661596 10.935046-39.585804 0l-228.364355-246.705031 224.84939-248.442644c5.480167-5.465717 12.643759-8.222056 19.792902-8.222056 7.163593 0 14.323573 2.759952 19.792902 8.222056 10.942271 10.916983 10.942271 28.629083 0 39.593029l-164.762633 181.452395L759.564806 358.589656c15.461511 0 28.000508 12.520934 28.000508 28.000508C787.558089 402.030001 775.02993 414.579835 759.564806 414.579835"  horiz-adv-x="1024" />

    
    <glyph glyph-name="arrowleft" unicode="&#58891;" d="M700.269-34.666c-14.331 0-27.677 5.512-37.657 15.529l-365.34 365.99c-1.337 1.306-2.38 2.417-3.234 3.607l-2.16 2.723c-10.653 10.703-15.888 23.296-15.888 36.627 0 13.571 5.351 26.26 15.053 35.73l367.853 363.953c9.951 9.813 23.238 15.222 37.401 15.222 13.848 0 26.931-5.25 36.832-14.769 9.841-9.549 15.507-22.867 15.506-36.518 0-13.484-5.365-26.259-15.134-35.969l-331.846-328.283 336.081-336.964c9.607-9.666 14.915-22.296 14.915-35.619 0-13.958-5.673-27.055-15.937-36.876-9.768-9.271-22.734-14.381-36.444-14.381z"  horiz-adv-x="1024" />

    
    <glyph glyph-name="icon-test" unicode="&#58913;" d="M256 469.333333H213.333333c-23.5648 0-42.666667 19.101867-42.666666 42.666667V640c0 23.5648 19.101867 42.666667 42.666666 42.666667h597.333334c23.5648 0 42.666667-19.101867 42.666666-42.666667v-128c0-23.5648-19.101867-42.666667-42.666666-42.666667h-38.4v-42.666666h38.4c47.1296 0 85.333333 38.203733 85.333333 85.333333V640c0 47.1296-38.203733 85.333333-85.333333 85.333333H213.333333c-47.1296 0-85.333333-38.203733-85.333333-85.333333v-128c0-47.1296 38.203733-85.333333 85.333333-85.333333h42.666667v42.666666zM277.333333 85.333333c0-23.5648 19.101867-42.666667 42.666667-42.666666h384c23.5648 0 42.666667 19.101867 42.666667 42.666666V558.933333H277.333333v-473.6z m-42.666666 0V601.6h554.666666v-516.266667c0-47.1296-38.203733-85.333333-85.333333-85.333333H320c-47.1296 0-85.333333 38.203733-85.333333 85.333333zM358.4 25.6V584.533333h42.666667v-558.933333zM640 106.666667l0 149.333333 42.666667 0 0-149.333333-42.666667 0ZM563.2 106.666667l0 234.666666 42.666667 0 0-234.666666-42.666667 0Z"  horiz-adv-x="1024" />

    
    <glyph glyph-name="yuan" unicode="&#58967;" d="M512 384m-512 0a100 100 0 1 0 1024 0 100 100 0 1 0-1024 0Z"  horiz-adv-x="1024" />

    
    <glyph glyph-name="app" unicode="&#59007;" d="M1003.52 465.92l0-61.44-84.992 0c-3.6864-18.14528-10.67008-35.0208-20.15232-50.21696l53.6576-53.63712-43.45856-43.43808-52.36736 52.38784c-16.97792-11.93984-36.41344-20.60288-57.48736-24.8832L798.72 220.16l-61.44 0 0 64.512c-23.12192 4.68992-44.2368 14.70464-62.32064 28.50816l-41.53344-41.51296-43.43808 43.43808 44.4416 44.4416C626.5856 373.3504 620.7488 388.42368 617.472 404.48L552.96 404.48l0 61.44 64.512 0c4.28032 21.05344 12.94336 40.50944 24.8832 57.48736l-52.38784 52.38784 43.43808 43.43808 53.6576-53.63712c15.19616 9.44128 32.07168 16.44544 50.19648 20.13184L737.25952 670.72l61.44 0 0-84.992c16.03584-3.25632 31.1296-9.09312 44.91264-16.93696l64.9216 64.9216 43.45856-43.45856-62.01344-62.01344c13.824-18.06336 23.81824-39.19872 28.52864-62.32064L1003.52 465.92zM768 506.88c-39.60832 0-71.68-32.09216-71.68-71.68s32.07168-71.68 71.68-71.68 71.68 32.09216 71.68 71.68S807.60832 506.88 768 506.88zM471.04 240.64l-122.88 0 0 61.44 122.88 0L471.04 240.64zM348.16 670.72l122.88 0 0-61.44-122.88 0L348.16 670.72zM471.04 424.96l-122.88 0 0 61.44 122.88 0L471.04 424.96zM737.28 773.12 286.72 773.12l0-655.36 450.56 0 0 40.96 61.44 0 0-143.36c0-67.87072-55.02976-122.88-122.88-122.88L348.16-107.52c-67.85024 0-122.88 55.00928-122.88 122.88L225.28 752.64c0 67.85024 55.02976 122.88 122.88 122.88l327.68 0c67.85024 0 122.88-55.02976 122.88-122.88l0-20.48-61.44 0L737.28 773.12z"  horiz-adv-x="1024" />

    
    <glyph glyph-name="app1" unicode="&#58950;" d="M967.231779 648.790294L512.823029 423.196087 58.414278 648.790294c-25.592082 12.817368-23.992577 44.807471 1.599505 56.004007L480.02251 888.801374a78.375753 78.375753 0 0 0 65.622364 0l419.198311-182.407568c26.381172-12.817368 26.381172-44.807471 2.388594-57.603512zM421.608581-123.2162L36.810295 84.762123c-23.992577 11.196536-36.809945 32.01143-36.809945 54.425829V557.575847c0 25.613409 31.201014 40.008956 55.214918 27.191587l384.798286-207.99965c21.603983-11.196536 35.189113-31.990103 35.189113-54.383175v-418.430548c0.831743-24.013904-30.390598-39.987629-53.594086-27.170261z m183.196657 0l384.819613 207.978323c21.603983 11.196536 35.189113 32.01143 35.189114 54.425829V557.575847c0 25.613409-31.179687 40.008956-55.193592 27.191587L583.990344 376.789111c-21.582656-11.196536-35.167787-31.990103-35.167786-54.383175v-418.430548c0.810416-24.035231 32.01143-40.008956 55.98268-27.191588z m0 0"  horiz-adv-x="1025" />

    
    <glyph glyph-name="dianhua" unicode="&#59047;" d="M754.842757 10.684106990000032c-299.818525 0.020456-680.181663 320.846794-680.181663 681.375242 0 106.580391 86.697631 193.258589 193.257567 193.258589 106.555845 0 193.253476-86.678198 193.2995-193.238134 0-64.914553-32.182661-124.518855-85.26779-160.220888C387.203973 416.13900199 478.130781 322.60411498999997 593.357719 308.01933298999995c35.322583 55.54695 95.799312 89.176839 162.681686 89.176839 106.60187 0 193.2995-86.699676 193.2995-193.253476 0-106.238784-86.65672-192.957893-193.186995-193.258589L754.842757 10.684106990000032 754.842757 10.684106990000032 754.842757 10.684106990000032zM267.918661 819.71301199c-70.386403 0-127.655708-57.247826-127.655708-127.654685 0-317.109572 346.239248-615.755996 614.579804-615.776452l1.109712 0c70.470271 0.196373 127.785601 57.490224 127.785601 127.660822 0 70.402768-57.269305 127.650594-127.697642 127.650594-49.290631 0-93.275102-27.693699-114.842374-72.305131l-9.438175-19.498197-21.613297 1.004366c-165.071913 7.620702-297.253404 143.05462-300.88528 308.292222l-0.44593 20.39108 18.068356 9.417719c42.408373 22.122639 68.738712 65.474012 68.738712 113.158885C395.616303 762.46518499 338.300974 819.71301199 267.918661 819.71301199L267.918661 819.71301199zM267.918661 819.71301199"  horiz-adv-x="1024" />

    
    <glyph glyph-name="icon209" unicode="&#58890;" d="M728.10692 598.351949c-16.95516 20.206204-47.294143 22.665209-67.747987 5.503341-20.403702-17.120936-24.693402-48.721655-7.842619-68.929906l-40.893362 49.41341c-22.239514 26.503631-62.48717 29.337165-89.918939 6.318916-27.431769-23.01825-31.247678-62.823837-9.007141-89.328491l-39.248909 48.836265c-22.239514 26.503631-62.783928 29.088502-90.091878 6.173606-27.307949-22.914896-31.038924-62.670342-8.809643-89.161692l-158.38631 188.757015c-20.433378 24.350594-56.741305 27.516704-80.622202 7.477298-23.868617-20.028149-26.662243-56.024991-6.240121-80.363306l317.054029-377.849674-157.166529 62.546521c-24.758893 9.853415-52.396347-2.372024-61.847603-27.620058l-7.218402-19.283182c-9.399067-25.106818 2.390443-54.058197 27.016307-64.809051 0 0 131.038452-59.155285 211.382315-82.659605 32.522718-9.514701 53.894468-33.005718 118.650307-45.329395 64.754816-12.322653 105.490589-4.524037 105.490589-4.524037 13.171997 1.468444 32.107255 9.587356 42.591027 18.384719 0 0 23.275099 19.529799 50.191122 42.11519 37.951357 31.845289 94.296643 79.125105 94.296643 79.125105 10.229992 8.583492 22.706141 25.374924 27.599591 38.104853 0 0 28.104081 57.94369 19.451004 121.558543-8.654101 63.614853-65.673745 128.949884-65.673745 128.949884l-110.731964 131.965567L728.10692 598.351949z"  horiz-adv-x="1024" />

    
    <glyph glyph-name="shenfenzheng" unicode="&#58909;" d="M461.552114 424.880184l-25.479764 32.02878c24.661137 19.544719 38.782452 48.810633 38.782452 80.225442 0 56.382932-45.945438 102.32837-102.32837 102.32837s-102.32837-45.945438-102.32837-102.32837c0-31.41481 14.121315-60.680723 38.782452-80.225442L283.500749 424.880184c-34.484661 27.321675-54.234036 68.253023-54.234036 112.254222 0 78.997502 64.262216 143.259718 143.259718 143.259718s143.259718-64.262216 143.259718-143.259718C515.78615 493.133207 496.036774 452.201859 461.552114 424.880184zM559.480364 229.126012c-3.78615 0-7.572299 1.023284-10.949136 3.172179-9.516538 6.037374-12.381733 18.726092-6.242031 28.24263 9.618867 15.04227 14.4283 31.005496 14.4283 47.275707 0 23.637854-10.437494 46.764065-30.084541 66.820426-18.623763 18.930748-44.001199 33.870691-73.983412 43.591886-23.637854-16.065554-51.164185-24.45648-80.123114-24.45648s-56.48526 8.390926-80.123114 24.45648c-29.982212-9.721195-55.359648-24.763466-73.983412-43.591886C198.772859 354.682922 188.335365 331.55671 188.335365 307.918857c0-16.372539 4.911762-32.233437 14.4283-47.275707 6.037374-9.516538 3.274508-22.205256-6.242031-28.24263-9.516538-6.037374-22.205256-3.274508-28.24263 6.242031-13.81433 21.693614-20.874988 45.024483-20.874988 69.276307 0 34.689317 14.4283 67.639053 41.852303 95.472369 25.479764 25.889078 60.578395 45.638453 101.509743 57.201559 6.344359 1.739582 13.098031 0.409313 18.21445-3.683821 18.21445-14.4283 40.215049-22.102928 63.545918-22.102928s45.331468 7.674628 63.545918 22.102928c5.116419 4.093135 11.972419 5.423404 18.21445 3.683821 40.931348-11.460777 76.029979-31.312481 101.509743-57.201559 27.424003-27.833317 41.852303-60.88538 41.852303-95.472369 0-24.251824-7.060658-47.582692-20.874988-69.378635C572.88538 232.502848 566.234036 229.126012 559.480364 229.126012zM839.143799 574.995903 634.487059 574.995903c-11.256121 0-20.465674 9.209553-20.465674 20.465674l0 0c0 11.256121 9.209553 20.465674 20.465674 20.465674l204.65674 0c11.256121 0 20.465674-9.209553 20.465674-20.465674l0 0C859.609473 584.205456 850.39992 574.995903 839.143799 574.995903zM839.143799 451.178575 634.487059 451.178575c-11.256121 0-20.465674 9.209553-20.465674 20.465674l0 0c0 11.256121 9.209553 20.465674 20.465674 20.465674l204.65674 0c11.256121 0 20.465674-9.209553 20.465674-20.465674l0 0C859.609473 460.388128 850.39992 451.178575 839.143799 451.178575zM839.143799 329.407815 634.487059 329.407815c-11.256121 0-20.465674 9.209553-20.465674 20.465674l0 0c0 11.256121 9.209553 20.465674 20.465674 20.465674l204.65674 0c11.256121 0 20.465674-9.209553 20.465674-20.465674l0 0C859.609473 338.617368 850.39992 329.407815 839.143799 329.407815zM858.58619 791.932048c33.870691 0 61.397022-27.526332 61.397022-61.397022l0-601.690816c0-33.870691-27.526332-61.397022-61.397022-61.397022L165.823124 67.447187c-33.870691 0-61.397022 27.526332-61.397022 61.397022l0 601.690816c0 33.870691 27.526332 61.397022 61.397022 61.397022L858.58619 791.932048M858.58619 832.863396 165.823124 832.863396c-56.48526 0-102.32837-45.84311-102.32837-102.32837l0-601.690816c0-56.48526 45.84311-102.32837 102.32837-102.32837l692.763066 0c56.48526 0 102.32837 45.84311 102.32837 102.32837l0 601.690816C960.91456 787.020286 915.07145 832.863396 858.58619 832.863396L858.58619 832.863396z"  horiz-adv-x="1024" />

    
    <glyph glyph-name="credentials_icon" unicode="&#58889;" d="M1137.63548175 709.88876953h-701.91738281c-55.35615234-0.05625-100.21552734-44.91650391-100.27177735-100.26738281v-451.2375c0.05625-55.35615234 44.91650391-100.21552734 100.26826172-100.27177735h701.92265625c55.35615234 0.05625 100.21640625 44.91650391 100.27177734 100.26738282v451.2375c-0.05625 55.35615234-44.91650391 100.21552734-100.26738281 100.27177734zM1187.76741534 158.38300780999998c-0.03603516-27.67763672-22.46308594-50.1046875-50.13720703-50.14160156h-701.91210938c-27.67412109 0.04130859-50.09589844 22.46660156-50.13105468 50.13720703v451.23486328c0.03515625 27.67763672 22.46308594 50.1046875 50.13720703 50.14072266h701.91210937c27.67412109-0.04130859 50.09589844-22.46660156 50.1319336-50.13720703zM1042.9034505 364.14550781c27.07382812 23.01240234 44.59130859 56.8546875 44.59130859 95.05546875 0 69.11103516-56.23154297 125.34345703-125.34345703 125.34345703s-125.33291016-56.23242188-125.33291016-125.34345703c0-38.20078125 17.54384766-72.04306641 44.61855469-95.05546875-56.19638672-29.28515625-94.75751953-87.99873047-94.75751953-155.62880859 0-13.84541016 11.22539063-25.06992188 25.06992187-25.06992188 13.84541016 0 25.06992188 11.22539063 25.06992188 25.06992188 0 69.11103516 56.23242188 125.34257812 125.34257812 125.34257812s125.34345703-56.23154297 125.34345704-125.34257812c0 0 0 0 0 0 0-13.84541016 11.22539063-25.06992188 25.06992187-25.06992188 13.84541016 0 25.06992188 11.22539063 25.06992188 25.06992188 0 0 0 0 0 0-0.00791016 67.63007812-38.54355469 126.34453125-94.74169922 155.62880859zM886.9503255 459.20185547c0 41.53447266 33.66914062 75.20185547 75.20273437 75.20185547s75.20185547-33.66914062 75.20185547-75.20185547c0-41.53447266-33.66914062-75.20185547-75.20185547-75.20185547-41.51425781 0.04570313-75.15527344 33.68847656-75.20185547 75.19833984zM761.60511065 534.41337891h-300.81796875c-13.84541016 0-25.06992188-11.22539063-25.06992187-25.06992188s11.22539063-25.06992188 25.06992187-25.06992187h300.81796875c13.84541016 0 25.06992188 11.22539063 25.06992188 25.06992187s-11.22539063 25.06992188-25.06992188 25.06992188zM736.53518878 409.06992188h-275.74804688c-13.84541016 0-25.06992188-11.22539063-25.06992187-25.06992188s11.22539063-25.06992188 25.06992187-25.06992188h275.74804688c13.84541016 0 25.06992188 11.22539063 25.06992187 25.06992188s-11.22539063 25.06992188-25.06992187 25.06992188zM661.33333331 283.72822266000003h-200.5453125c-13.84541016 0-25.06992188-11.22539063-25.06992188-25.06992188s11.22539063-25.06992188 25.06992188-25.06992187h200.5453125c13.84541016 0 25.06992188 11.22539063 25.06992188 25.06992187s-11.22539063 25.06992188-25.06992188 25.06992188z"  horiz-adv-x="1417" />

    
    <glyph glyph-name="credentials_icon-copy" unicode="&#60280;" d="M1271.28975803 779.50826667h-851.86773333c-67.18186668-0.06826669-121.62453335-54.51200003-121.69280004-121.68746667v-547.6352c0.06826669-67.18186668 54.51200003-121.62453335 121.68853335-121.69279999h851.87413336c67.18186668 0.06826669 121.6256 54.51200003 121.69279995 121.68746666v547.63519999c-0.06826669 67.18186668-54.51200003 121.62453335-121.68746666 121.69280001zM1332.13135801 110.18453332000001c-0.04373332-33.59039999-27.26186667-60.80853333-60.84800003-60.85333333h-851.86133332c-33.58613332 0.05013335-60.79786667 27.26613334-60.84053332 60.84800001v547.63199999c0.04266665 33.59039999 27.26186667 60.80853333 60.84799997 60.8522667h851.86133336c33.58613332-0.05013335 60.79786667-27.26613334 60.84159998-60.84800001zM1156.32015801 359.904c32.85760001 27.92853338 54.11733333 69.00053333 54.11733332 115.36213334 0 83.87520001-68.24426667 152.12053333-152.12053335 152.12053334s-152.10773332-68.24533334-152.10773332-152.12053334c0-46.36160001 21.29173339-87.4336 54.15039999-115.36213334-68.20160002-35.5413333-115.00053333-106.79786667-115.00053333-188.87573334 0-16.80320001 13.62346668-30.42560002 30.42560001-30.42559999 16.80320001 0 30.42560002 13.62346668 30.4256 30.42560001 0 83.87520001 68.24533334 152.11946665 152.11946668 152.11946666s152.12053333-68.24426667 152.12053325-152.11946666c0 0 0 0 0 0 0-16.80320001 13.62346668-30.42560002 30.42560007-30.42560001 16.80320001 0 30.42560002 13.62346668 30.42560001 30.42560001 0 0 0 0 0 0-0.00959997 82.07786666-46.77759999 153.33546665-114.98133333 188.87573332zM967.05082468 475.2672c0 50.40746667 40.86186668 91.2672 91.26826666 91.26719998s91.2672-40.86186668 91.26719999-91.26719998c0-50.40746667-40.86186668-91.2672-91.26719999-91.2672-50.38293334 0.05546668-91.21066666 40.88533332-91.2672 91.26293334zM814.92815799 566.54613333h-365.08160003c-16.80320001 0-30.42560002-13.62346668-30.4256-30.4256s13.62346668-30.42560002 30.4256-30.42560001h365.08160003c16.80320001 0 30.42560002 13.62346668 30.42560002 30.42560001s-13.62346668 30.42560002-30.42560002 30.4256zM784.50255798 414.42560002h-334.65600002c-16.80320001 0-30.42560002-13.62346668-30.42559994-30.42560002s13.62346668-30.42560002 30.42559994-30.42560002h334.65600002c16.80320001 0 30.42560002 13.62346668 30.42560001 30.42560002s-13.62346668 30.42560002-30.42559997 30.42560002zM693.23535803 262.30719999999997h-243.38773337c-16.80320001 0-30.42560002-13.62346668-30.4256-30.42559998s13.62346668-30.42560002 30.4256-30.42560002h243.38773337c16.80320001 0 30.42560002 13.62346668 30.42559998 30.42560002s-13.62346668 30.42560002-30.42559998 30.42559998z"  horiz-adv-x="1417" />

    
    <glyph glyph-name="weibiaoti" unicode="&#58887;" d="M382.723072 670.2110720000001c0 68.108288-55.402496 123.510784-123.50976 123.510784-68.109312 0-123.510784-55.40352-123.510784-123.510784s55.402496-123.50976 123.510784-123.50976c68.107264 0 123.50976 55.401472 123.50976 123.50976zM195.390464 536.66304C105.757696 508.222464 47.251456 421.704704 47.251456 327.66771200000005v-149.09952c0-7.314432 5.98528-13.299712 13.299712-13.299712h71.66976v-180.051968c0-6.147072 4.984832-11.129856 11.129856-11.129856h232.650752c6.147072 0 11.13088 4.983808 11.13088 11.129856V165.26847999999995h55.318528c16.3072 0 29.64992 13.343744 29.64992 29.64992V340.84864000000005c0 134.6048-139.137024 239.466496-276.7104 195.8144zM822.39488 670.2110720000001c0 68.108288-55.40352 123.510784-123.510784 123.510784-68.109312 0-123.50976-55.40352-123.50976-123.510784s55.399424-123.50976 123.50976-123.50976c68.107264 0 123.510784 55.401472 123.510784 123.50976zM920.312832 159.023104l-67.520512 265.346048c-14.661632 72.285184-79.399936 124.8-153.9072 124.8-74.507264 0-139.245568-52.513792-153.340928-122.3424l-68.086784-267.803648a44.55424 44.55424 0 0 1 7.810048-37.850112c8.220672-10.789888 20.901888-17.209344 34.453504-17.514496 0 0 33.173504-0.694272 59.343872-0.804864 8.434688-25.25184 21.01248-62.374912 32.398336-98.427904 5.711872-18.086912 22.552576-30.339072 41.521152-30.339072h92.085248c18.818048 0 35.505152 12.171264 41.167872 30.117888 11.403264 36.140032 24.0384 74.365952 32.508928 99.668992 26.14784 0.109568 59.302912 0.294912 59.302912 0.294912 13.55264 0.305152 26.23488 6.468608 34.454528 17.25952 8.223744 10.768384 11.091968 24.433664 7.809024 37.595136z"  horiz-adv-x="1024" />

    
    <glyph glyph-name="Error" unicode="&#58884;" d="M500 800C223.875 800 0 576.1875 0 300c0-276.125 223.875-500 500-500 276.1875 0 500 223.875 500 500C1000 576.1875 776.1875 800 500 800zM500-137.5c-241.1875 0-437.5 196.3125-437.5 437.5 0 241.25 196.3125 437.5 437.5 437.5s437.5-196.25 437.5-437.5C937.5 58.8125 741.1875-137.5 500-137.5zM654.6875 498.9375 500 344.1875 345.3125 498.875 301.125 454.6875 455.75 300 301.0625 145.3125 345.25 101.125 500 255.8125 654.6875 101.125 698.875 145.3125 544.1875 300 698.875 454.75Z"  horiz-adv-x="1000" />

    
    <glyph glyph-name="gth" unicode="&#58883;" d="M511.427-127.56c-68.987 0-136 13.476-199.039 40.177-60.926 25.768-115.509 62.642-162.428 109.563-46.919 46.919-83.793 101.634-109.561 162.428-26.695 63.039-40.179 130.046-40.179 199.037 0 68.987 13.484 136 40.179 199.037 25.768 60.928 62.642 115.509 109.561 162.43 46.919 46.919 101.634 83.793 162.428 109.561 63.039 26.695 130.052 40.179 199.039 40.179 68.992 0 135.998-13.484 199.037-40.179 60.926-25.768 115.509-62.642 162.428-109.561 46.921-46.921 83.793-101.634 109.561-162.43 26.701-63.038 40.179-130.050 40.179-199.037 0-68.992-13.477-135.998-40.179-199.037-25.768-60.926-62.641-115.509-109.561-162.428-46.919-46.921-101.634-83.795-162.428-109.563-63.039-26.701-130.046-40.177-199.037-40.177v0zM511.427 828.642c-118.946 0-230.627-46.257-314.813-130.317-84.058-84.051-130.315-195.865-130.315-314.679 0-118.946 46.257-230.626 130.315-314.679 84.053-84.058 195.867-130.317 314.813-130.317 118.945 0 230.626 46.259 314.811 130.317 84.058 84.053 130.315 195.867 130.315 314.679 0 118.946-46.257 230.627-130.315 314.679-84.185 84.060-195.867 130.317-314.811 130.317v0zM465.83 697.928l9.65-444.857h69.25l9.65 444.857h-88.549zM471.513 144.43c-11.099-10.835-16.65-23.92-16.65-39.383 0-15.728 5.55-28.947 16.65-39.649 11.106-10.709 24.449-15.993 39.914-15.993 15.463 0 28.813 5.284 39.912 15.993 11.099 10.702 16.656 23.921 16.656 39.649 0 15.463-5.557 28.676-16.656 39.383-11.099 10.835-24.449 16.259-39.912 16.259-15.465 0-28.808-5.425-39.914-16.259v0z"  horiz-adv-x="1024" />

    
    <glyph glyph-name="menu1" unicode="&#59073;" d="M366.36444445 420.40888889H147.91111111c-60.07466667 0-109.22666667 49.152-109.22666666 109.22666666V748.08888889c0 60.07466667 49.152 109.22666667 109.22666666 109.22666666h218.45333334c60.07466667 0 109.22666667-49.152 109.22666666-109.22666666v-218.45333334c0-60.07466667-49.152-109.22666667-109.22666666-109.22666666zM147.91111111 784.49777778c-20.02488889 0-36.40888889-16.384-36.40888889-36.40888889v-218.45333334c0-20.02488889 16.384-36.40888889 36.40888889-36.40888888h218.45333334c20.02488889 0 36.40888889 16.384 36.40888888 36.40888888V748.08888889c0 20.02488889-16.384 36.40888889-36.40888888 36.40888889H147.91111111zM876.08888889 420.40888889H657.63555555c-60.07466667 0-109.22666667 49.152-109.22666666 109.22666666V748.08888889c0 60.07466667 49.152 109.22666667 109.22666666 109.22666666h218.45333334c60.07466667 0 109.22666667-49.152 109.22666666-109.22666666v-218.45333334c0-60.07466667-49.152-109.22666667-109.22666666-109.22666666zM657.63555555 784.49777778c-20.02488889 0-36.40888889-16.384-36.40888888-36.40888889v-218.45333334c0-20.02488889 16.384-36.40888889 36.40888888-36.40888888h218.45333334c20.02488889 0 36.40888889 16.384 36.40888889 36.40888888V748.08888889c0 20.02488889-16.384 36.40888889-36.40888889 36.40888889H657.63555555zM366.36444445-89.31555555H147.91111111c-60.07466667 0-109.22666667 49.152-109.22666666 109.22666666V238.36444444999995c0 60.07466667 49.152 109.22666667 109.22666666 109.22666666h218.45333334c60.07466667 0 109.22666667-49.152 109.22666666-109.22666666v-218.45333334c0-60.07466667-49.152-109.22666667-109.22666666-109.22666666zM147.91111111 274.77333333c-20.02488889 0-36.40888889-16.384-36.40888889-36.40888888v-218.45333334c0-20.02488889 16.384-36.40888889 36.40888889-36.40888889h218.45333334c20.02488889 0 36.40888889 16.384 36.40888888 36.40888889V238.36444444999995c0 20.02488889-16.384 36.40888889-36.40888888 36.40888888H147.91111111zM876.08888889-89.31555555H657.63555555c-60.07466667 0-109.22666667 49.152-109.22666666 109.22666666V238.36444444999995c0 60.07466667 49.152 109.22666667 109.22666666 109.22666666h218.45333334c60.07466667 0 109.22666667-49.152 109.22666666-109.22666666v-218.45333334c0-60.07466667-49.152-109.22666667-109.22666666-109.22666666zM657.63555555 274.77333333c-20.02488889 0-36.40888889-16.384-36.40888888-36.40888888v-218.45333334c0-20.02488889 16.384-36.40888889 36.40888888-36.40888889h218.45333334c20.02488889 0 36.40888889 16.384 36.40888889 36.40888889V238.36444444999995c0 20.02488889-16.384 36.40888889-36.40888889 36.40888888H657.63555555z"  horiz-adv-x="1024" />

    
    <glyph glyph-name="zhanghuxinxi" unicode="&#60278;" d="M879 131.6c11.2 0 19.2-8.5 19.2-19 0-10.5-7.9-17.8-19.2-17.8l-81.2 0 0-50.8c0-8.9-8.7-16.1-19.5-16.1-10.7 0-18.3 7.2-18.3 16.1l0 50.8-65 0c-11.2 0-20.3 7.3-20.3 17.8 0 10.5 9.1 19 20.3 19l65 0 0 36.8-65 0c-11.2 0-20.3 7.3-20.3 17.8 0 10.5 9.1 19 20.3 19l53.3 0L689 269.5c-5.3 5.9-3.2 16.3 4.9 23.3 8 6.9 18.9 7.9 24.3 2l60.7-66.9 59.6 66.9c5.3 5.9 16.2 5 24.3-2 8-7 10.2-17.4 4.9-23.3l-59.4-64.2 69.6 0c11.2 0 20.4-8.5 20.4-19 0-10.5-9.1-17.8-20.4-17.8l-80 0 0-36.8L879 131.7 879 131.6zM779.8 416.6c-134.9 0-244.2-106.6-244.2-238.2 0-131.5 109.3-238.2 244.2-238.2 134.9 0 244.2 106.6 244.2 238.2C1024 309.9 914.7 416.6 779.8 416.6L779.8 416.6zM464.5 171.9c0 148.1 106.5 271.8 248.8 302.6 12.8 30.1 19.9 63.1 19.9 97.7 0 141.2-117.4 255.6-262.2 255.6S208.8 713.3 208.8 572.1c0-103.5 63.1-192.3 153.8-232.6C172.2 293.2 25.1 134.5 0-59.3l570.7 0C505.5-2.5 464.5 80 464.5 171.9L464.5 171.9z"  horiz-adv-x="1024" />

    
    <glyph glyph-name="blchecked" unicode="&#58984;" d="M851.2 723.2C662.4 912 358.4 912 172.8 723.2c-188.8-188.8-188.8-492.8 0-678.4 188.8-188.8 492.8-188.8 678.4 0s188.8 489.6 0 678.4z m-44.8-633.6c-163.2-163.2-425.6-163.2-588.8 0-163.2 163.2-163.2 425.6 0 588.8 163.2 163.2 425.6 163.2 588.8 0 163.2-163.2 163.2-425.6 0-588.8zM825.6 598.4c-12.8 12.8-32 12.8-44.8 0L419.2 240 243.2 416c-12.8 12.8-32 12.8-44.8 0-12.8-12.8-12.8-32 0-44.8l198.4-198.4c12.8-12.8 32-12.8 44.8 0l384 384c12.8 9.6 12.8 28.8 0 41.6z"  horiz-adv-x="1024" />

    
    <glyph glyph-name="yonghu-copy" unicode="&#60048;" d="M509.194094 593.526037m-238.621702 0a233.187 233.187 0 1 1 477.243405 0 233.187 233.187 0 1 1-477.243405 0ZM888.427278 102.114958c-3.690042 11.828396-9.178033 23.463388-16.249079 34.782178-18.231223 35.761482-34.957163 61.801555-66.874083 94.771457-73.399707 75.818803-179.337481 120.095215-293.309232 120.752178-157.320025-0.907673-296.538787-89.774653-363.269607-220.667795-7.070023-11.31879-9.472745-23.982204-13.162788-35.811624-8.366551-26.820855-9.384741-62.83714 0.650823-87.131453 9.841136-23.822568 28.181853-43.548842 52.325739-56.614415 23.607674-12.775978 53.726645-19.197224 86.996376-19.645432 0.020466-0.12075 0.048095-0.2415 0.068562-0.363274L511.994883-67.813223l236.390895 0c0.020466 0.121773 0.047072 0.242524 0.068562 0.363274 33.269731 0.449231 63.387679 5.841032 86.996376 18.61701 24.143886 13.065574 41.456181 27.647687 51.297316 51.470255 4.931313 11.936867 9.499351 29.68509 9.785877 47.832402C896.828622 69.25659599999994 892.683209 88.47224000000006 888.427278 102.114958z"  horiz-adv-x="1024" />

    
    <glyph glyph-name="yonghu-copy-copy" unicode="&#60279;" d="M509.194094 593.526037m-238.621702 0a233.187 233.187 0 1 1 477.243405 0 233.187 233.187 0 1 1-477.243405 0ZM888.427278 102.114958c-3.690042 11.828396-9.178033 23.463388-16.249079 34.782178-18.231223 35.761482-34.957163 61.801555-66.874083 94.771457-73.399707 75.818803-179.337481 120.095215-293.309232 120.752178-157.320025-0.907673-296.538787-89.774653-363.269607-220.667795-7.070023-11.31879-9.472745-23.982204-13.162788-35.811624-8.366551-26.820855-9.384741-62.83714 0.650823-87.131453 9.841136-23.822568 28.181853-43.548842 52.325739-56.614415 23.607674-12.775978 53.726645-19.197224 86.996376-19.645432 0.020466-0.12075 0.048095-0.2415 0.068562-0.363274L511.994883-67.813223l236.390895 0c0.020466 0.121773 0.047072 0.242524 0.068562 0.363274 33.269731 0.449231 63.387679 5.841032 86.996376 18.61701 24.143886 13.065574 41.456181 27.647687 51.297316 51.470255 4.931313 11.936867 9.499351 29.68509 9.785877 47.832402C896.828622 69.25659599999994 892.683209 88.47224000000006 888.427278 102.114958z"  horiz-adv-x="1024" />

    
    <glyph glyph-name="zhanghu" unicode="&#58916;" d="M63.213205-19.665643l895.357108 0c-20.298302 183.520757-150.84659 333.806575-324.017628 383.146307 75.608002 43.050492 126.628002 124.314307 126.628002 217.543641 0 138.207735-112.033609 250.236228-250.241344 250.236228-138.202619 0-250.337535-112.028493-250.337535-250.236228 0-93.228311 51.069119-174.49315 126.705773-217.543641C214.121194 314.135816 83.519694 163.848974 63.213205-19.665643z"  horiz-adv-x="1024" />

    
    <glyph glyph-name="PAY_CASH" unicode="&#58901;" d="M663.461 76.802c-25.122 0-44.813 20.369-44.813 45.491v98.451l-91.662-143.942h-105.241l154.806 250.542c6.111 10.185 7.469 20.369 7.469 32.591l-0 242.394h93.020v-266.159h35.307v-198.94c0-13.58 8.148-21.727 22.406-21.727h206.832l-0 622.449c0 35.117-27.898 63.586-62.312 63.586h-719.485c-34.415 0-62.312-28.468-62.312-63.586v-716.935c0-35.118 27.897-63.585 62.312-63.585h719.485c34.414 0 62.312 28.466 62.312 63.585v55.786l-278.124 0zM440.077 653.933c0 25.122 19.69 45.492 44.813 45.492h291.281c24.444 0 44.813-20.37 44.813-45.492v-361.895h-90.304l0 342.883c0 14.259-11.543 25.802-25.802 25.802h-147.338c-13.58 0-25.802-11.543-25.802-25.802v-342.883h-91.662l-0 361.895zM392.549 122.972l-202.336-13.579v39.38l49.566 3.394 0 224.743h-35.986v40.059h35.986v218.631h-45.491v40.059h194.867v-40.059h-46.85v-218.63h36.665v-40.059h-36.665v-217.951l50.245 3.394v-39.382z"  horiz-adv-x="1024" />

    
    <glyph glyph-name="xianjin" unicode="&#58886;" d="M958.2 732.8c-3.1 18.8-10.7 36.2-21.9 51.4-11.2 15.3-25.5 27-42.3 35.1-12.2 6.1-24.9 10.2-38.7 11.2-0.5 0-1.5 0.5-2 1H171.5c-6.1-1.5-12.2-2.5-18.3-4.1-16.8-4.1-31.1-11.7-44.3-22.4-13.7-11.2-24.4-24.4-32.1-40.2-6.1-12.2-10.2-24.9-11.2-38.7 0-0.5-0.5-1-1-1.5v-680.8c1.5-6.1 2.5-12.2 4.1-18.3 4.6-18.8 13.7-35.1 26.5-49.9 10.2-11.7 22.4-20.9 36.2-27.5 13.7-6.6 28.5-11.2 43.8-11.2 1 0 2-0.5 3.1-1h666.5c5.1 0.5 9.7 1 14.8 2 20.4 3.1 38.7 11.7 55.5 24.4 13.2 10.2 23.9 22.9 31.1 37.7 5.1 11.2 8.1 23.4 11.7 35.1 1.5 4.1 1.5 9.2 2 13.2V717.9c-0.6 5.7-1.2 10.3-1.7 14.9zM682.8 375.9v-45.3H559v-85h123.7v-45.3H559v-106.4h-93.7V200.2H340.6v45.3h124.7v85H340.6v45.3h102.9L293.3 603.5h110.5l58-110.5c23.9-46.3 32.1-62.6 49.4-95.7h3.1c18.8 33.1 27 50.9 49.4 95.7l57.5 110.5h108.5L578.9 375.9h103.9z"  horiz-adv-x="1024" />

    
    <glyph glyph-name="doctor" unicode="&#58991;" d="M868.845803 4.681882c-1.969864-42.047652-22.045085-68.775386-59.323107-68.659753-72.976058 0.220011-156.678412-0.071631-267.838118-0.173962l0-0.029676c-10.853186 0-21.008476 0-31.381731 0-10.374278 0-20.528546 0-31.367405 0l0 0.029676c-111.176079 0.102331-194.876386 0.393973-267.868817 0.173962-37.254485-0.115634-57.346079 26.612101-59.313897 68.659753 0 152.726403 107.680465 251.059989 244.458641 287.257399-38.70758 30.113855-68.879764 75.488275-84.809571 129.426745-13.393032 6.316869-29.79356 20.425192-35.906791 56.418964-6.053879 35.671431 8.915044 50.758034 16.560164 55.995315L292.055171 769.265574c0 0 109.817128 62.926168 217.270419 62.926168 102.915951 0 203.645097-62.926168 203.645097-62.926168l0-230.559073c0 0 2.752694-0.401136 5.28026-2.490727 0 0 29.061896-11.234879 20.965497-58.21282-6.40385-37.131689-23.898293-50.889017-37.685297-56.871265-15.697517-53.018517-45.198411-97.722672-83.015715-127.805828C758.051417 258.411677 868.845803 159.567461 868.845803 4.681882zM576.729745 267.83735c-21.942755-9.775644-45.549406-15.275915-70.235644-15.275915-21.256116 0-41.74066 4.085038-61.057611 11.438517 20.790512-53.1802 41.624003-156.853397 64.866357-221.094514C534.126438 108.765425 555.426557 216.000751 576.729745 267.83735zM380.642788 216.292394c-93.024673-20.090571-159.027923-76.100212-159.027923-182.576245 1.239224-27.677363 13.845333-45.287439 37.217646-45.199435 54.070476 0.173962 147.108452-0.132006 237.332337-0.146333l0 35.102473C466.692606 40.075996 404.803048 216.961636 380.642788 216.292394zM666.193313 722.353125c0 0-53.952796 47.190789-156.868747 47.190789-107.453291 0-170.510442-47.190789-170.510442-47.190789l0-141.302213c0 0 63.057151 47.190789 170.510442 47.190789 102.915951 0 156.868747-47.190789 156.868747-47.190789L666.193313 722.353125zM669.31542 467.207074c5.54325 33.409924 2.148943 109.389386-157.160389 109.611443-176.335101 0.245593-166.381401-76.274174-160.89648-109.757776 4.202719-25.589818 43.400462-168.329776 158.445662-171.393555C625.415584 292.584987 664.910087 440.799634 669.31542 467.207074zM628.611369 216.292394c-25.898857 0.669242-74.496691-176.216397-106.039082-192.81954l0-35.102473c96.643084 0.014326 178.606841 0.320295 236.530065 0.146333 25.064862-0.088004 38.545898 17.522072 39.887452 45.199435C798.989805 140.192182 728.273207 196.201823 628.611369 216.292394zM487.410464 646.732843l0 30.909987L441.642071 677.64283l0 46.366004 45.768393 0 0 30.908964 45.782719 0 0-30.908964 45.768393 0 0-46.366004-45.768393 0 0-30.909987L487.410464 646.732843z"  horiz-adv-x="1024" />

    
    <glyph glyph-name="down-circle" unicode="&#58888;" d="M512-128C229.248-128 0 101.248 0 384 0 666.794667 229.248 896 512 896s512-229.205333 512-512c0-282.752-229.248-512-512-512z m0 981.333333C252.8 853.333333 42.666667 643.2 42.666667 384s210.133333-469.333333 469.333333-469.333333 469.333333 210.133333 469.333333 469.333333S771.2 853.333333 512 853.333333z m-241.322667-384l30.165334 30.165334 211.2-211.157334 211.2 211.157334 30.165333-30.165334-241.365333-241.322666L270.677333 469.333333z"  horiz-adv-x="1024" />

    
    <glyph glyph-name="up-circle" unicode="&#58892;" d="M511.936354-128C230.165971-128 0.916054 101.675874 0.916054 383.914809 0.916054 666.196339 230.165971 895.787022 511.936354 895.787022s510.977704-229.590682 510.977704-511.872213c0-282.238935-229.207321-511.914809-510.977704-511.914809z m0 980.978369c-258.214975 0-468.296839-210.422629-468.296839-469.06356 0-258.683527 210.081864-469.106156 468.296839-469.106157 258.172379 0 468.254243 210.422629 468.254243 469.106157 0 258.640932-210.081864 469.063561-468.254243 469.06356z m0-355.077537l-217.663894-207.95208-29.43361 30.967055 247.097504 236.193012 247.097504-236.193012-29.476206-30.967055-217.621298 207.95208z"  horiz-adv-x="1024" />

    
    <glyph glyph-name="circle-pre" unicode="&#58903;" d="M578.662 453.069c-10.035 10.086-26.368 10.086-36.352 0l-143.718-146.688c-10.035-10.189-10.035-26.624 0-36.71l143.718-146.637c9.984-10.189 26.317-10.138 36.352 0 10.035 10.086 10.035 26.522 0 36.71l-117.862 128.256 117.862 128.307c10.035 10.138 10.035 26.522 0 36.762zM512 779.52c-271.462 0-491.52-220.058-491.52-491.52 0-271.514 220.058-491.52 491.52-491.52s491.52 220.006 491.52 491.52c0 271.462-220.058 491.52-491.52 491.52zM512-139.725c-236.288 0-427.725 191.488-427.725 427.725s191.437 427.725 427.725 427.725c236.186 0 427.725-191.488 427.725-427.725s-191.539-427.725-427.725-427.725z"  horiz-adv-x="1024" />

    
    <glyph glyph-name="circle-next" unicode="&#58908;" d="M563.2 288l-117.862 128.307c-10.035 10.138-10.035 26.573 0 36.762 10.035 10.086 26.368 10.086 36.352 0l143.718-146.637c10.035-10.189 10.035-26.624 0-36.71l-143.718-146.637c-9.984-10.189-26.317-10.138-36.352 0-10.035 10.086-10.035 26.522 0 36.71l117.862 128.205zM512 779.52c271.462 0 491.52-220.058 491.52-491.52 0-271.514-220.058-491.52-491.52-491.52s-491.52 220.006-491.52 491.52c0 271.462 220.058 491.52 491.52 491.52zM512-139.725c236.186 0 427.725 191.488 427.725 427.725s-191.539 427.725-427.725 427.725c-236.288 0-427.725-191.488-427.725-427.725-0.051-236.237 191.437-427.725 427.725-427.725z"  horiz-adv-x="1024" />

    
    <glyph glyph-name="quanbukeshi" unicode="&#59052;" d="M512 884C235.8 884 12 660.1 12 384c0-276.2 223.9-500 500-500 276.2 0 500 223.9 500 500 0 276.2-223.9 500-500 500z m244.4-760.7c0-19.1-15.6-34.8-34.8-34.8H304.5c-19.1 0-34.8 15.6-34.8 34.8v139c0 10.4 7 17.4 17.4 17.4 10.4 0 17.4-7 17.4-17.4v-139h417.1v139c0 10.4 7 17.4 17.4 17.4 10.4 0 17.4-7 17.4-17.4v-139zM565.2 227.6c8.7 0 17.4-8.7 17.4-17.4s-8.7-17.4-17.4-17.4h-34.8V158c0-8.7-8.7-17.4-17.4-17.4s-17.4 8.7-17.4 17.4v34.8h-34.8c-8.7 0-17.4 8.7-17.4 17.4s8.7 17.4 17.4 17.4h34.8v34.8c0 8.7 8.7 17.4 17.4 17.4s17.4-8.7 17.4-17.4v-34.8h34.8z m241.6 173.8c0-57.4-46.9-104.3-104.3-104.3-43.4 0-79.9 26.1-95.6 62.6-15.6-36.5-52.1-62.6-95.6-62.6s-79.9 26.1-95.6 62.6c-15.6-36.5-52.1-62.6-95.6-62.6-57.4 0-104.3 46.9-104.3 104.3 0 5.2 0 12.2 1.7 17.4l64.3 248.5c1.7 7 8.7 12.2 17.4 12.2H725c8.7 0 15.6-5.2 17.4-12.2l64.3-248.5c1.8-5.3 1.8-12.2 0.1-17.4z"  horiz-adv-x="1024" />

    
    <glyph glyph-name="click1" unicode="&#59444;" d="M384 418.133v157.867c0 59.733 46.933 106.667 106.667 106.667s106.667-46.933 106.667-106.667v-157.867c51.2 34.133 85.333 93.867 85.333 157.867 0 106.667-85.333 192-192 192s-192-85.333-192-192c0-68.267 34.133-123.733 85.333-157.867zM802.133 217.6l-192 98.133c-8.533 4.267-12.8 4.267-21.333 4.267h-34.133v256c0 34.133-29.867 64-64 64s-64-29.867-64-64v-456.533l-145.067 29.867h-8.533c-12.8 0-25.6-4.267-34.133-12.8l-34.133-34.133 209.067-209.067c12.8-12.8 29.867-17.067 46.933-17.067h290.133c34.133 0 55.467 21.333 59.733 55.467l34.133 226.133v8.533c0 21.333-17.067 42.667-42.667 51.2z"  horiz-adv-x="1024" />

    
    <glyph glyph-name="click" unicode="&#59085;" d="M822.259-33.891 434.672-33.891c-30.575 0-55.37-24.794-55.37-55.37l0-55.37c0-30.586 24.794-55.37 55.37-55.37l387.587 0c30.586 0 55.37 24.783 55.37 55.37l0 55.37C877.628-58.686 852.845-33.891 822.259-33.891zM688.431 528.542l-70.751 0c-19.158 0-41.073-1.528-63.088-4.95L554.592 717.972c7.752 106.808-119.919 78.68-119.919 78.68-29.224 0-61.582-35.016-61.582-78.68l-1.639-283.492c-0.044-1.041-0.587-1.849-0.587-2.912 0 0 0.255-3.699 0.532-8.682l-0.288-59.478c-1.805-23.787-6.323-45.824-17.131-50.464-43.498-18.66-115.922 131.004-202.708 0-48.814-73.686 283.404-291.465 283.404-291.465l387.587 0c18.66 0 55.37 52.435 55.37 71.15L877.631 397.681C877.628 472.552 763.069 528.542 688.431 528.542z"  horiz-adv-x="1024" />

    
    <glyph glyph-name="number" unicode="&#58885;" d="M598.990748 267.669664c-18.155499 14.744819-42.549072 22.125927-73.185836 22.125927-32.907481 0-59.71401-9.785877-80.417541-29.358655-18.155499-17.305131-27.230178-38.864146-27.230178-64.674998 0-30.355355 11.626805-52.906977 34.890648-67.652819 20.702508-13.050224 46.803979-19.572778 78.290087-19.572778 37.159318 0 64.674998 9.640568 82.546018 28.932959 14.179954 15.597233 21.274536 34.604122 21.274536 57.016575C635.157459 224.270225 623.097796 248.662775 598.990748 267.669664zM467.088626 388.509846c17.298991-14.751982 37.585013-22.124903 60.844763-22.124903 26.945699 0 49.496298 9.500375 67.652819 28.506241 15.597233 16.73515 23.401989 36.59343 23.401989 59.5687 0 25.244964-10.072403 46.518476-30.209022 63.825654-17.305131 15.031345-38.013779 22.550599-62.121849 22.550599-25.814945 0-47.800679-9.646708-65.951061-28.932959-15.888875-16.454764-23.826662-35.887348-23.826662-58.291614C436.87858 427.509069 446.94382 405.808838 467.088626 388.509846zM527.507694 764.594317c-247.39246 0-447.943079-200.550619-447.943079-447.943079 0-247.39246 200.550619-447.943079 447.943079-447.943079 247.393483 0 447.943079 200.549595 447.943079 447.943079C975.450772 564.043698 774.900154 764.594317 527.507694 764.594317zM673.025928 84.28296c-32.337499-35.176151-80.563874-52.762691-144.666844-52.762691-52.482305 0-95.595218 11.633968-129.349997 34.890648-40.282448 27.796066-60.420091 66.941622-60.420091 117.437689 0 56.165184 25.669636 105.661482 77.015048 148.496056-17.591657 17.297968-29.931706 32.763195-37.018102 46.37726-12.485359 24.108071-18.721387 50.208519-18.721387 78.291111 0 50.773384 18.011212 91.76089 54.03773 122.967636 29.498848 25.243941 66.942645 37.869492 112.329345 37.869492 58.433854 0 103.674221-19.293415 135.733381-57.867966 23.542182-28.368094 35.316344-62.407352 35.316344-102.117772 0-28.931936-7.231705-55.459103-21.700231-79.567173-7.6574-12.199856-21.420869-27.943422-41.273009-47.228651 24.679076-16.454764 42.1244-32.764218 52.336996-48.931432 17.871019-27.803229 26.805506-58.152445 26.805506-91.054809C713.44857 149.382631 699.971627 113.780785 673.025928 84.28296z"  horiz-adv-x="1024" />

    
    <glyph glyph-name="11" unicode="&#58905;" d="M512 860.5696C248.832 860.5696 35.4304 647.168 35.4304 384S248.832-92.5696 512-92.5696 988.5696 120.832 988.5696 384 775.168 860.5696 512 860.5696zM578.3552 55.5008l-80.896 0L497.4592 605.5936C438.272 551.3216 350.8224 531.456 350.8224 531.456l0 78.6432c115.712 33.792 197.0176 102.4 197.0176 102.4l30.5152 0L578.3552 55.5008z"  horiz-adv-x="1024" />

    
    <glyph glyph-name="21" unicode="&#58906;" d="M489.0624 867.328c-250.0608 0-452.608-202.5472-452.608-452.608s202.5472-452.608 452.608-452.608 452.608 202.5472 452.608 452.608S739.1232 867.328 489.0624 867.328zM679.3216 106.2912 299.4176 106.2912c-3.072 71.0656 4.096 106.496 31.3344 152.3712 27.2384 45.8752 123.0848 116.9408 141.9264 128.4096 18.8416 11.4688 72.0896 59.5968 72.0896 59.5968 73.1136 78.2336 50.176 197.2224-43.8272 211.968-94.0032 14.5408-176.3328-72.0896-176.3328-72.0896L324.608 658.432c35.4304 39.7312 129.4336 85.6064 227.5328 54.272 98.0992-31.3344 126.3616-123.0848 105.472-208.6912-20.8896-85.6064-122.0608-159.744-139.8784-169.1648-17.8176-9.4208-94.0032-67.7888-115.9168-91.9552-21.9136-23.9616-21.9136-69.8368-21.9136-69.8368l299.6224 0L679.5264 106.2912z"  horiz-adv-x="1024" />

    
    <glyph glyph-name="3" unicode="&#58907;" d="M512 836.608C261.9392 836.608 59.392 634.0608 59.392 384s202.5472-452.608 452.608-452.608 452.608 202.5472 452.608 452.608S762.0608 836.608 512 836.608zM621.568 58.5728c-159.9488-88.6784-315.392 0-315.392 0l0 91.3408c76.3904-74.5472 314.9824-96.256 319.8976 74.1376 4.9152 170.3936-249.856 133.5296-249.856 133.5296l0 74.1376L444.416 431.7184c187.1872-5.5296 195.7888 189.44 94.0032 231.2192-101.7856 41.7792-205.824-39.5264-205.824-39.5264L332.5952 706.9696c205.2096 95.6416 357.1712 16.5888 360.2432-130.6624s-140.4928-176.9472-140.4928-176.9472C730.9312 391.5776 781.5168 147.2512 621.568 58.5728z"  horiz-adv-x="1024" />

    
    <glyph glyph-name="finger-up" unicode="&#59023;" d="M803.17 499.983c-21.228 21.228-49.45 32.918-79.469 32.918-4.498 0-8.954-0.262-13.354-0.78a115.302 115.302 0 0 1-3.954 4.156c-21.227 21.225-49.449 32.914-79.467 32.914-8.162 0-16.193-0.865-23.986-2.55-16.334 13.929-36.047 22.759-57.177 25.677v131.1c0 30.018-11.689 58.24-32.914 79.467-21.227 21.229-49.45 32.921-79.47 32.921-30.019 0-58.242-11.691-79.469-32.919-21.228-21.228-32.918-49.45-32.918-79.469v-312.391a118.67 118.67 0 0 1-14.67 0.909c-23.924 0.002-47.031-7.151-66.823-20.684-13.188-9.023-24.221-20.378-32.808-33.758-8.274-12.893-13.905-27.081-16.734-42.17-2.83-15.09-2.723-30.354 0.319-45.37 3.109-15.347 9.141-29.721 17.933-42.735 9.711-14.791 83.407-126.849 105.758-155.25 32.882-41.78 70.484-75.162 111.765-99.22 22.093-12.875 45.025-22.844 68.159-29.63 24.719-7.25 49.865-10.927 74.739-10.927 8.561 0 17.211 0.44 25.71 1.307 31.386 3.202 60.548 9.669 86.677 19.222 30.109 11.007 56.519 26.22 78.497 45.215 24.711 21.357 43.789 47.397 56.706 77.396 13.184 30.62 19.869 65.357 19.869 103.246V420.514c0 30.019-11.691 58.241-32.919 79.469z m-31.081-321.404c0-120.967-83.718-171.153-184.246-181.41-6.425-0.656-12.828-0.976-19.213-0.976-76.838 0-150.168 46.485-204.369 115.354-21.531 27.36-102.826 151.214-102.826 151.214-16.975 24.806-10.621 58.687 14.188 75.662 9.407 6.432 20.105 9.515 30.695 9.514 17.362-0.001 34.425-8.292 44.971-23.703l33.703-49.255v448.44c0 26.721 21.666 48.388 48.388 48.388s48.384-21.666 48.384-48.388V481c0 26.721 21.666 48.388 48.391 48.388 26.721 0 48.384-21.666 48.384-48.388v-24.192c0 26.721 21.666 48.384 48.388 48.384s48.388-21.663 48.388-48.384v-36.293c0 26.721 21.666 48.387 48.388 48.387s48.388-21.666 48.388-48.387v-241.936z"  horiz-adv-x="1024" />

    
    <glyph glyph-name="shuziziti" unicode="&#59006;" d="M512 886.671c-277.187 0-502.671-225.483-502.671-502.671s225.483-502.671 502.671-502.671 502.671 225.483 502.671 502.671-225.483 502.671-502.671 502.671zM512 24.554c-29.73 0-53.859 24.129-53.859 53.855 0 29.73 24.128 53.859 53.859 53.859s53.859-24.128 53.859-53.859c0-29.728-24.129-53.855-53.859-53.855zM611.385 391.648c-31.238-31.202-63.482-63.444-63.482-92.419v-60.714c0-19.819-16.086-35.904-35.904-35.904s-35.906 16.086-35.906 35.906v60.714c0 58.741 44.88 103.622 84.516 143.227 29.044 29.049 59.1 59.063 59.1 83.011 0 59.853-48.329 108.541-107.714 108.541-60.391 0-107.714-46.604-107.714-106.099 0-19.819-16.081-35.906-35.906-35.906s-35.904 16.081-35.904 35.906c0 98.092 80.535 177.908 179.525 177.908s179.525-80.895 179.525-180.353c0-53.715-40.754-94.431-80.139-133.821z"  horiz-adv-x="1024" />

    
    <glyph glyph-name="Add" unicode="&#58904;" d="M1023.987 409.612h-486.439v486.388h-51.173v-486.388h-486.362v-51.199h486.362v-486.413h51.173v486.413h486.439z"  horiz-adv-x="1024" />

    
    <glyph glyph-name="quanwushuzi1" unicode="&#60043;" d="M490.777 673.001v-687.223h116.11v810.001h-116.11l-115.001-83.891v-123.332z"  horiz-adv-x="1024" />

    
    <glyph glyph-name="quanwushuzi2" unicode="&#60044;" d="M306.889-14.222h461.667v116.111h-309.444l260.556 326.667c32.593 41.482 48.889 88.889 48.889 142.222-0.741 66.667-23.148 121.666-67.222 165-43.334 43.704-99.814 65.926-169.444 66.667-62.223-0.741-114.629-22.592-157.222-65.556-42.222-44.074-64.815-99.814-67.778-167.222h115.556c4.074 37.037 17.037 65.741 38.889 86.111 21.111 20.37 47.592 30.556 79.444 30.556 35.926-0.741 63.704-12.407 83.333-35 18.889-22.593 28.333-49.074 28.333-79.444 0-11.482-1.481-23.704-4.444-36.667-4.444-13.704-12.778-28.518-25-44.444l-316.111-395.556v-109.444z"  horiz-adv-x="1024" />

    
    <glyph glyph-name="quanwushuzi3" unicode="&#60045;" d="M470.222 351.889h48.889c35.926 0 65.555-10.926 88.889-32.778 23.704-22.593 35.926-54.444 36.667-95.556-0.741-40.371-12.963-71.481-36.667-93.333-23.333-23.333-52.037-35-86.111-35-31.852 0-57.407 8.704-76.667 26.111-18.889 16.667-33.518 38.518-43.889 65.556h-116.111c12.593-67.408 40.185-118.889 82.778-154.444 42.593-35.556 91.481-53.333 146.667-53.333 71.482 0.741 130 23.518 175.556 68.333 46.297 43.704 69.815 103.518 70.556 179.444 0 34.074-7.222 66.667-21.667 97.778-15.185 31.111-39.815 57.778-73.889 80 33.333 22.593 56.481 48.333 69.444 77.222 11.111 28.889 16.667 58.889 16.667 90-0.741 61.482-21.852 114.815-63.333 160-43.334 46.297-101.851 69.815-175.556 70.556-58.148-0.741-108.148-21.481-150-62.222-42.593-41.111-66.852-91.666-72.778-151.667h116.111c7.407 33.334 21.852 57.963 43.333 73.889 20.37 15.926 42.963 23.889 67.778 23.889 34.445-0.741 62.592-11.667 84.444-32.778 21.852-21.852 33.148-49.815 33.889-83.889 0-33.704-10.926-61.111-32.778-82.222-21.852-21.852-52.592-32.778-92.222-32.778h-40v-102.778z"  horiz-adv-x="1024" />

    
    <glyph glyph-name="quanwushuzi4" unicode="&#60046;" d="M241.444978 106.333867 579.222756 106.333867 579.222756-14.222222 695.332978-14.222222 695.332978 106.333867 759.776711 106.333867 759.776711 215.776711 695.332978 215.776711 695.332978 448.554667 579.222756 448.554667 579.222756 215.776711 367.556267 215.776711 641.444978 795.778844 512 795.778844 241.444978 215.776711Z"  horiz-adv-x="1024" />

    
    <glyph glyph-name="quanwushuzi5" unicode="&#60047;" d="M284.222222 358 393.666668 358C407.370439 382.814939 422.925838 400.222171 440.333335 410.222222 457.740828 419.851901 476.999893 424.666667 498.111113 424.666667 521.814932 424.666667 541.629551 421.333367 557.555556 414.666667 573.48156 406.518477 585.518478 395.592661 593.666668 381.888887 608.851928 352.999856 616.074078 315.407639 615.333333 269.111111 615.333333 250.222128 614.962967 230.777879 614.222222 210.777776 612.740733 190.407305 608.666701 171.518606 602 154.111113 595.703671 136.703616 584.592671 122.629683 568.666667 111.88889 551.999918 100.777722 529.777917 95.222221 502 95.222221 437.184862 95.962965 398.481545 127.444133 385.888887 189.666668L269.777778 189.666668C280.888944 115.221851 309.59236 61.333501 355.88889 28 401.444673-4.592757 451.629355-20.888889 506.444444-20.888889 547.185388-20.148144 582.370222-10.703795 612 7.444446 642.370523 24.85194 665.518438 44.111004 681.444443 65.222224 699.592684 86.703812 712.555517 111.333194 720.333335 139.111111 727.740777 167.259401 731.444446 207.629366 731.444446 260.222222 731.444446 294.296468 730.333343 322.999882 728.11111 346.333332 725.888879 369.296412 722.18521 388.740662 716.999999 404.666667 706.99995 433.926073 690.703818 459.666554 668.11111 481.888887 652.92585 498.555639 633.111233 512.629572 608.666667 524.11111 582.740611 534.481533 554.222379 540.037035 523.111111 540.777779 474.59235 540.777779 431.444634 525.96311 393.666668 496.333335L393.666668 679.666667 715.88889 679.666667 715.88889 795.777778 284.222222 795.777778 284.222222 358Z"  horiz-adv-x="1024" />

    
    <glyph glyph-name="money" unicode="&#58945;" d="M512 780.78c-272.154 0-492.78-220.625-492.78-492.78s220.625-492.78 492.78-492.78 492.78 220.625 492.78 492.78-220.626 492.78-492.78 492.78zM717.79 338.801v-70.634l-161.643-0v-98.254h161.643v-71.087l-161.643 0v-141.269h-88.293l-0 141.268h-166.625v71.087h166.624v98.254h-166.624v70.634l140.363 0-171.604 279.644h100.971l119.988-209.009c6.636-13.887 14.185-31.546 22.64-52.976h1.811c6.034 17.206 13.88 35.615 23.544 55.241l120.441 206.744h94.632l-173.87-279.643h137.646z"  horiz-adv-x="1024" />

    
    <glyph glyph-name="si" unicode="&#58900;" d="M230.678288 124.075245c36.817534-23.600511 89.683579-41.537022 146.325623-41.537022 84.018555 0 133.1086 43.426045 133.1086 108.563578 0 58.530045-33.985022 93.459578-119.892601 125.556601C286.375821 354.419424 222.181777 409.172445 222.181777 497.912535c0 99.123578 82.130555 172.757622 205.799156 172.757622 64.194044 0 112.340601-15.103999 139.717112-31.152511l-22.657023-67.026556c-19.824511 12.272511-62.306045 30.209022-119.892601 30.209022-86.851067 0-119.891578-51.921533-119.891578-95.347578 0-59.474556 38.705534-88.739067 126.500089-122.724089 107.619066-42.481534 161.428599-93.459578 161.428599-186.918134 0-98.179067-71.746044-184.086645-221.846644-184.086645-61.362556 0-128.388089 18.879999-162.374134 41.537022L230.678288 124.075245zM742.34776 564.938068c-31.152511 0-51.921533 24.545022-51.921533 53.809533 0 29.265534 21.712511 52.866045 53.809533 52.866045s52.865022-23.600511 52.865022-52.866045c0-29.264511-20.767999-53.809533-53.809533-53.809533L742.34776 564.938068zM702.698738 24.008178 702.698738 480.919513l83.074044 0 0-456.911334L702.698738 24.008178z"  horiz-adv-x="1024" />

    
    <glyph glyph-name="renminbi" unicode="&#58980;" d="M758.909818 638.564139l-182.977543-311.293592 144.178718 0 0-68.778366-167.987772 0 0-94.784715 167.987772 0 0-69.651264-167.987772 0 0-138.00823-86.416931 0 0 138.00823L291.548031 94.056202l0 69.651264 174.15826 0 0 94.784715L291.548031 258.492181l0 68.778366 148.60341 0L258.919694 638.564139l97.43351 0c84.671135-154.623398 136.081834-252.658907 154.322399-294.106526l1.775897 0c6.170488 17.036567 23.086655 51.4408 50.718401 103.182598l103.603998 190.923927L758.909818 638.564139z"  horiz-adv-x="1024" />

    
    <glyph glyph-name="tuichu" unicode="&#58897;" d="M919.361 384.791c0-13.447-5.821-25.535-15.153-33.865v0l-152.271-136.598c-8.059-7.305-18.823-11.679-30.578-11.679-25.201 0-45.668 20.369-45.668 45.557 0 13.447 5.884 25.498 15.153 33.816v0l63.801 57.25h-276.868c-25.226 0-45.668 20.381-45.668 45.557s20.442 45.557 45.668 45.557v0h276.868l-63.801 57.25c-9.233 8.331-15.153 20.406-15.153 33.828 0 25.151 20.468 45.557 45.668 45.557 11.741 0 22.507-4.412 30.578-11.692v0l152.271-136.624c9.331-8.417 15.153-20.505 15.153-33.914zM462.513 688.392h-182.737v-607.278h182.737c25.226 0 45.668-20.369 45.668-45.557s-20.468-45.557-45.668-45.557h-228.43c-25.226 0-45.668 20.369-45.668 45.557v698.392c0 25.139 20.468 45.557 45.668 45.557h228.406c25.226 0 45.668-20.381 45.668-45.557 0-25.164-20.418-45.557-45.644-45.557z"  horiz-adv-x="1024" />

    
    <glyph glyph-name="label_large" unicode="&#58918;" d="M2858.666667 896H0v-1024h2858.666667l-213.333334 507.733333L2858.666667 896z"  horiz-adv-x="2858" />

    
    <glyph glyph-name="number-xianxing" unicode="&#59004;" d="M512 832c247.424 0 448-200.576 448-448 0-247.424-200.576-448-448-448s-448 200.576-448 448 200.576 448 448 448zM512 768c-212.064 0-384-171.936-384-384s171.936-384 384-384 384 171.936 384 384c0 212.077-171.923 384-384 384zM524.16 128c-2.725-0.131-5.919-0.206-9.13-0.206-66.572 0-125.656 32.065-162.649 81.592l35.459 38.933c30.858-39.14 78.273-64.037 131.502-64.037 1.244 0 2.485 0.014 3.722 0.041 70.216-0.003 113.096 36.477 113.096 92.797s-49.28 86.4-120.32 86.4h-50.56v55.68h49.92c64 0 112.64 24.32 112.64 81.92s-51.84 83.84-107.52 83.84c-0.427 0.004-0.931 0.006-1.437 0.006-50.926 0-96.405-23.326-126.334-59.877l-34.15 38.111c38.203 47.052 96.044 76.874 160.852 76.874 1.951 0 3.896-0.027 5.834-0.081 92.515 0.006 163.555-47.994 163.555-131.834-1.225-59.499-46.157-108.136-103.928-115.165 61.822-8.064 109.676-59.778 111.614-123.049 0.635-81.786-65.285-141.946-172.165-141.946z"  horiz-adv-x="1024" />

    
    <glyph glyph-name="usericon" unicode="&#58881;" d="M515.087315 578.278911m-184.953386 0a180.741 180.741 0 1 0 369.906771 0 180.741 180.741 0 1 0-369.906771 0ZM860.418364-13.930899c0-192.426591-155.696038-163.154917-348.418364-161.294546-192.417381 1.857301-348.418364-31.132044-348.418364 161.294546s155.991774 348.418364 348.418364 348.418364S860.418364 178.495692 860.418364-13.930899z"  horiz-adv-x="1024" />

    
    <glyph glyph-name="1" unicode="&#58880;" d="M510.511089 687.292744c52.102658 0 102.614076-10.190083 150.131299-30.28884 45.927005-19.425422 87.186711-47.248094 122.633015-82.693374 35.446303-35.446303 63.268976-76.706009 82.693374-122.633015 20.098757-47.517223 30.28884-98.028641 30.28884-150.131299s-10.190083-102.614076-30.28884-150.131299c-19.425422-45.927005-47.248094-87.186711-82.693374-122.633015-35.446303-35.446303-76.706009-63.267952-122.633015-82.693374-47.517223-20.098757-98.028641-30.28884-150.131299-30.28884s-102.614076 10.190083-150.131299 30.28884c-45.927005 19.425422-87.186711 47.248094-122.633015 82.693374-35.446303 35.446303-63.267952 76.706009-82.694397 122.633015-20.098757 47.517223-30.28884 98.028641-30.28884 150.131299s10.190083 102.614076 30.28884 150.131299c19.425422 45.927005 47.248094 87.186711 82.694397 122.633015 35.446303 35.446303 76.706009 63.267952 122.633015 82.693374C407.897014 677.10266 458.408431 687.292744 510.511089 687.292744M510.511089 748.691115c-246.952438 0-447.145923-200.194508-447.145923-447.145923S263.558651-145.600731 510.511089-145.600731s447.145923 200.194508 447.145923 447.145923S757.462504 748.691115 510.511089 748.691115L510.511089 748.691115zM501.157048 43.561513 501.157048 520.59821l-74.829266 0c-18.707061 0-28.061103 10.377348-28.061103 31.179117 0 16.612353 9.354042 25.966395 28.061103 28.061103l124.715443 0c14.518668 0 21.825075-6.236028 21.825075-18.707061l0-517.568832c-2.094708-20.801768-14.56574-31.179117-37.415145-31.179117C512.557702 12.382397 501.157048 22.759745 501.157048 43.561513z"  horiz-adv-x="1024" />

    
    <glyph glyph-name="2" unicode="&#58882;" d="M510.511089 687.292744c52.102658 0 102.614076-10.190083 150.131299-30.28884 45.927005-19.425422 87.186711-47.248094 122.633015-82.693374 35.446303-35.446303 63.268976-76.706009 82.693374-122.633015 20.098757-47.517223 30.28884-98.028641 30.28884-150.131299s-10.190083-102.614076-30.28884-150.131299c-19.425422-45.927005-47.248094-87.186711-82.693374-122.633015-35.446303-35.446303-76.706009-63.267952-122.633015-82.693374-47.517223-20.098757-98.028641-30.28884-150.131299-30.28884s-102.614076 10.190083-150.131299 30.28884c-45.927005 19.425422-87.186711 47.248094-122.633015 82.693374-35.446303 35.446303-63.267952 76.706009-82.694397 122.633015-20.098757 47.517223-30.28884 98.028641-30.28884 150.131299s10.190083 102.614076 30.28884 150.131299c19.425422 45.927005 47.248094 87.186711 82.694397 122.633015 35.446303 35.446303 76.706009 63.267952 122.633015 82.693374C407.897014 677.10266 458.408431 687.292744 510.511089 687.292744M510.511089 748.691115c-246.952438 0-447.145923-200.194508-447.145923-447.145923S263.558651-145.600731 510.511089-145.600731s447.145923 200.194508 447.145923 447.145923S757.462504 748.691115 510.511089 748.691115L510.511089 748.691115zM443.476347 71.622616l215.133755 0c16.612353-2.094708 25.966395-11.44875 28.061103-28.061103-2.094708-20.801768-11.44875-31.179117-28.061103-31.179117L381.118114 12.382397c-24.943089 0-37.415145 9.354042-37.415145 28.061103-2.094708 6.236028 3.118014 16.612353 15.589047 31.179117l196.426695 265.019932c24.943089 31.179117 38.438451 64.403822 40.532135 99.772354-4.189416 54.027497-34.297131 83.110883-90.418312 87.301322-66.547649-4.189416-100.843756-46.768163-102.890368-127.833457-2.094708-20.801768-12.472056-31.179117-31.179117-31.179117-22.896476-2.094708-34.297131 12.472056-34.297131 43.650149 8.281617 110.149703 68.593238 169.388898 180.837648 177.719634 91.441619-8.330736 142.351102-56.122205 152.776546-143.422504 2.046612-45.744857-10.425444-84.183308-37.415145-115.361401L443.476347 71.622616z"  horiz-adv-x="1024" />

    
    <glyph glyph-name="menu" unicode="&#59019;" d="M877.8-128l-146.2 0c-80.8 0-146.2 65.6-146.2 146.2l0 146.2c0 80.8 65.4 146.2 146.2 146.2l146.2 0c80.8 0 146.2-65.4 146.2-146.2l0-146.2C1024-62.6 958.4-128 877.8-128L877.8-128zM877.8 457.2l-146.2 0c-80.8 0-146.2 65.6-146.2 146.2L585.4 749.8c0 80.8 65.4 146.2 146.2 146.2l146.2 0C958.6 896 1024 830.6 1024 749.8l0-146.2C1024 522.6 958.4 457.2 877.8 457.2L877.8 457.2zM292.6-128 146.2-128C65.6-128 0-62.6 0 18.2l0 146.2c0 80.8 65.6 146.2 146.2 146.2l146.2 0c80.8 0 146.2-65.4 146.2-146.2l0-146.2C438.8-62.6 373.4-128 292.6-128L292.6-128zM292.6 457.2 146.2 457.2C65.6 457.2 0 522.6 0 603.4L0 749.8c0 80.6 65.6 146 146.2 146l146.2 0c80.8 0 146.2-65.4 146.2-146.2l0-146.2C438.8 522.6 373.4 457.2 292.6 457.2L292.6 457.2z"  horiz-adv-x="1024" />

    


  </font>
</defs>
</svg>
